<mxfile host="app.diagrams.net" agent="Mozilla/5.0 (Windows NT 10.0; Win64; x64) AppleWebKit/537.36 (KHTML, like Gecko) Chrome/131.0.0.0 Safari/537.36" version="24.8.9">
  <diagram name="Page-1" id="CMowx9qtsnprCYLSQlDB">
    <mxGraphModel dx="1430" dy="757" grid="1" gridSize="10" guides="1" tooltips="1" connect="1" arrows="1" fold="1" page="1" pageScale="1" pageWidth="850" pageHeight="1100" math="0" shadow="0">
      <root>
        <mxCell id="0" />
        <mxCell id="1" parent="0" />
        <mxCell id="2" value="- Uploads context files (PDFs, PPTs, DOCs)&lt;br&gt;- Configures sandbox mode&lt;br&gt;- Accesses generated notes" style="rounded=1;whiteSpace=wrap;html=1;fillColor=#f5f5f5;strokeColor=#666666;fontColor=#000000;" parent="1" vertex="1">
          <mxGeometry x="50" y="100" width="180" height="100" as="geometry" />
        </mxCell>
        <mxCell id="3" value="- Uploaded by user&lt;br&gt;- Purpose: Train context-aware module&lt;br&gt;- Processed for headings, paragraphs, and content" style="rounded=1;whiteSpace=wrap;html=1;fillColor=#f5f5f5;strokeColor=#666666;fontColor=#000000;" parent="1" vertex="1">
          <mxGeometry x="300" y="100" width="200" height="100" as="geometry" />
        </mxCell>
        <mxCell id="4" value="Transcriptions&#xa;- Raw speech-to-text output&#xa;- Real-time or from audio files&#xa;- Corrected using context files" style="rounded=1;whiteSpace=wrap;html=1;fillColor=#f5f5f5;fontColor=#000000;strokeColor=#666666;" parent="1" vertex="1">
          <mxGeometry x="580" y="340" width="200" height="100" as="geometry" />
        </mxCell>
        <mxCell id="5" value="" style="edgeStyle=orthogonalEdgeStyle;rounded=1;html=1;strokeColor=#666666;fillColor=#f5f5f5;fontColor=#000000;" parent="1" source="2" target="3" edge="1">
          <mxGeometry relative="1" as="geometry" />
        </mxCell>
        <mxCell id="6" value="" style="edgeStyle=orthogonalEdgeStyle;rounded=1;html=1;strokeColor=#666666;entryX=1;entryY=0.5;entryDx=0;entryDy=0;fillColor=#f5f5f5;fontColor=#000000;" parent="1" source="3" target="4" edge="1">
          <mxGeometry relative="1" as="geometry" />
        </mxCell>
        <mxCell id="9" value="" style="edgeStyle=orthogonalEdgeStyle;rounded=1;html=1;entryX=1;entryY=0.5;entryDx=0;entryDy=0;fillColor=#f5f5f5;strokeColor=#666666;fontColor=#000000;" parent="1" source="4" target="4WgmAb1SSo-sypYhThMG-25" edge="1">
          <mxGeometry relative="1" as="geometry">
            <mxPoint x="545" y="390" as="targetPoint" />
          </mxGeometry>
        </mxCell>
        <mxCell id="10" value="" style="edgeStyle=orthogonalEdgeStyle;rounded=1;html=1;strokeColor=#666666;exitX=0;exitY=0.5;exitDx=0;exitDy=0;entryX=1;entryY=0.5;entryDx=0;entryDy=0;fillColor=#f5f5f5;fontColor=#000000;" parent="1" source="4WgmAb1SSo-sypYhThMG-25" target="4WgmAb1SSo-sypYhThMG-27" edge="1">
          <mxGeometry relative="1" as="geometry">
            <mxPoint x="305" y="390" as="sourcePoint" />
            <mxPoint x="230" y="390" as="targetPoint" />
          </mxGeometry>
        </mxCell>
        <mxCell id="4WgmAb1SSo-sypYhThMG-25" value="&lt;span style=&quot;&quot;&gt;Summarization Pipeline&lt;/span&gt;&lt;br style=&quot;&quot;&gt;&lt;span style=&quot;&quot;&gt;- Processes transcription and context files&lt;/span&gt;&lt;br style=&quot;&quot;&gt;&lt;span style=&quot;&quot;&gt;- Uses Llama 3 8B Instruct 128K&lt;/span&gt;&lt;br style=&quot;&quot;&gt;&lt;span style=&quot;&quot;&gt;- Dockerized, secure, and chunk-based processing&lt;/span&gt;" style="rounded=1;whiteSpace=wrap;html=1;fillColor=#f5f5f5;strokeColor=#666666;fontColor=#000000;" parent="1" vertex="1">
          <mxGeometry x="303.75" y="340" width="200" height="100" as="geometry" />
        </mxCell>
        <mxCell id="4WgmAb1SSo-sypYhThMG-27" value="&lt;span style=&quot;&quot;&gt;Notes&lt;/span&gt;&lt;br style=&quot;&quot;&gt;&lt;span style=&quot;&quot;&gt;- Final structured output&lt;/span&gt;&lt;br style=&quot;&quot;&gt;&lt;span style=&quot;&quot;&gt;- Exportable (PDF)&lt;/span&gt;&lt;br style=&quot;&quot;&gt;&lt;span style=&quot;&quot;&gt;- Queryable via chatbot interface&lt;/span&gt;" style="rounded=1;whiteSpace=wrap;html=1;fillColor=#f5f5f5;strokeColor=#666666;fontColor=#000000;" parent="1" vertex="1">
          <mxGeometry x="50" y="340" width="200" height="100" as="geometry" />
        </mxCell>
        <mxCell id="U4YBNwiu2IwRacvz3HGf-11" value="User" style="shape=umlActor;verticalLabelPosition=bottom;verticalAlign=top;html=1;outlineConnect=0;fillColor=#f5f5f5;fontColor=#000000;strokeColor=#666666;" vertex="1" parent="1">
          <mxGeometry x="125" y="10" width="30" height="60" as="geometry" />
        </mxCell>
        <mxCell id="U4YBNwiu2IwRacvz3HGf-16" value="" style="editableCssRules=.*;html=1;shape=image;verticalLabelPosition=bottom;labelBackgroundColor=#ffffff;verticalAlign=top;aspect=fixed;imageAspect=0;image=data:image/svg+xml,PHN2ZyB4bWxucz0iaHR0cDovL3d3dy53My5vcmcvMjAwMC9zdmciIHhtbG5zOnY9Imh0dHBzOi8vdmVjdGEuaW8vbmFubyIgd2lkdGg9IjIwLjAwMDQ2MzQ4NTcxNzc3MyIgaGVpZ2h0PSIxNi42MzE1MTU1MDI5Mjk2ODgiIHZpZXdCb3g9IjAgMC4wMDAyNDE0MDk2NTI1MTcxNzcxNiAyMC4wMDA0NjM0ODU3MTc3NzMgMTYuNjMxNTE1NTAyOTI5Njg4Ij4mI3hhOwk8c3R5bGUgdHlwZT0idGV4dC9jc3MiPiYjeGE7CS5zdDB7ZmlsbDojNjY5ZGY2O30mI3hhOwkuc3Qxe2ZpbGw6IzQyODVmNDt9JiN4YTsJPC9zdHlsZT4mI3hhOwk8cGF0aCBjbGFzcz0ic3QwIiBkPSJNLjAxIDMuMzA2aDYuNjR2MS42N0guMDF6bS0uMDEgMTBoMCA5LjE3di0xLjY3SDB6bTAtNC4xN2g0LjE4SDEwbC0xLjY3LTEuNjZIMi41MSAweiIvPiYjeGE7CTxwYXRoIGNsYXNzPSJzdDEiIGQ9Ik0xMCA1LjM4NmEuNDIuNDIgMCAwIDEgLjQyLS4zNi40MS40MSAwIDAgMSAuNDEuMzZ2OS4xOGEyLjA5IDIuMDkgMCAwIDAgMi42MSAyIDIuMTYgMi4xNiAwIDAgMCAxLjU2LTIuMTFWMi4wNjZhLjQuNCAwIDAgMSAuMTktLjQuNDEuNDEgMCAwIDEgLjQ1IDAgLjQuNCAwIDAgMSAuMTkuNHY5LjE2YTIuMDcgMi4wNyAwIDAgMCAuODEgMS42NCAyIDIgMCAwIDAgMS44LjM3IDIuMTYgMi4xNiAwIDAgMCAxLjU2LTIuMTJ2LTIuOGgtMS42N3YyLjkyYS40LjQgMCAwIDEtLjE5LjQuNDEuNDEgMCAwIDEtLjQ1IDAgLjQuNCAwIDAgMS0uMTktLjR2LTkuMTdhMi4wOSAyLjA5IDAgMCAwLTIuNjEtMiAyLjE2IDIuMTYgMCAwIDAtMS41NiAyLjEzdjEyLjM3YS40LjQgMCAwIDEtLjE5LjQuNDEuNDEgMCAwIDEtLjQ1IDAgLjQuNCAwIDAgMS0uMTktLjR2LTkuMTdhMi4wNyAyLjA3IDAgMCAwLTQuMTEtLjM2IDIuNCAyLjQgMCAwIDAtLjA1LjQ2djJMMTAgOS4xMzZ6Ii8+JiN4YTs8L3N2Zz4=;fillColor=#f5f5f5;fontColor=#000000;strokeColor=#666666;" vertex="1" parent="1">
          <mxGeometry x="670" y="263" width="40" height="34" as="geometry" />
        </mxCell>
        <mxCell id="U4YBNwiu2IwRacvz3HGf-17" value="" style="group;fillColor=#f5f5f5;fontColor=#000000;strokeColor=#666666;" vertex="1" connectable="0" parent="1">
          <mxGeometry x="330" y="30" width="147.5" height="50" as="geometry" />
        </mxCell>
        <mxCell id="U4YBNwiu2IwRacvz3HGf-12" value="" style="shape=image;html=1;verticalAlign=top;verticalLabelPosition=bottom;labelBackgroundColor=#ffffff;imageAspect=0;aspect=fixed;image=https://cdn4.iconfinder.com/data/icons/file-extension-names-vol-8/512/24-128.png;fillColor=#f5f5f5;fontColor=#000000;strokeColor=#666666;" vertex="1" parent="U4YBNwiu2IwRacvz3HGf-17">
          <mxGeometry width="38.47826086956522" height="38.47826086956522" as="geometry" />
        </mxCell>
        <mxCell id="U4YBNwiu2IwRacvz3HGf-13" value="" style="shape=image;html=1;verticalAlign=top;verticalLabelPosition=bottom;labelBackgroundColor=#ffffff;imageAspect=0;aspect=fixed;image=https://cdn4.iconfinder.com/data/icons/file-extension-names-vol-5-1/512/35-128.png;fillColor=#f5f5f5;fontColor=#000000;strokeColor=#666666;" vertex="1" parent="U4YBNwiu2IwRacvz3HGf-17">
          <mxGeometry x="51.30434782608695" width="38.47826086956522" height="38.47826086956522" as="geometry" />
        </mxCell>
        <mxCell id="U4YBNwiu2IwRacvz3HGf-15" value="" style="shape=image;html=1;verticalAlign=top;verticalLabelPosition=bottom;labelBackgroundColor=#ffffff;imageAspect=0;aspect=fixed;image=https://cdn0.iconfinder.com/data/icons/file-type-19/512/file__doc__word__document_-128.png;fillColor=#f5f5f5;fontColor=#000000;strokeColor=#666666;" vertex="1" parent="U4YBNwiu2IwRacvz3HGf-17">
          <mxGeometry x="109.02173913043478" width="38.47826086956522" height="38.47826086956522" as="geometry" />
        </mxCell>
        <mxCell id="U4YBNwiu2IwRacvz3HGf-21" value="" style="shape=image;verticalLabelPosition=bottom;labelBackgroundColor=default;verticalAlign=top;aspect=fixed;imageAspect=0;image=https://cdn-icons-png.flaticon.com/512/8832/8832880.png;fillColor=#f5f5f5;fontColor=#000000;strokeColor=#666666;" vertex="1" parent="1">
          <mxGeometry x="104.5" y="242.5" width="71" height="71" as="geometry" />
        </mxCell>
        <mxCell id="U4YBNwiu2IwRacvz3HGf-23" value="" style="shape=image;verticalLabelPosition=bottom;labelBackgroundColor=default;verticalAlign=top;aspect=fixed;imageAspect=0;image=data:image/png,iVBORw0KGgoAAAANSUhEUgAAAfQAAAH0CAYAAADL1t+KAAAAAXNSR0IArs4c6QAAIABJREFUeF7sXQd8FMX337vdvZpGL4JSVUQRFQvtrygaRZCaKBKQnh+CCEovEnpEBGxUQXpJgBCBACKiooCKyE/Qn4CCVJUaksv13f3zjh0clktuL9lLLse7z4dPQm52dub7ZuY77817b3QMfhABRAARQAQQAUSg1COgK/U9wA4gAogAIoAIIAKIAIOEjoMAEUAEEAFEABGIAASQ0CNAiNgFRAARQAQQAUQACR3HACKACCACiAAiEAEIIKFHgBCxC4gAIoAIIAKIABI6jgFEABFABBABRCACEEBCjwAhYhcQAUQAEUAEEAEkdBwDiAAigAggAohABCCAhB4BQsQuIAKIACKACCACSOg4BhABRAARQAQQgQhAAAk9AoSIXUAEEAFEABFABJDQcQwgAogAIoAIIAIRgAASegQIEbuACCACiAAigAggoeMYQAQQAUQAEUAEIgABJPQIECJ2ARFABBABRAARQELHMYAIIAKIACKACEQAAkjoESBE7AIigAggAogAIoCEjmMAEUAEEAFEABGIAASQ0CNAiNgFRAARQAQQAUQACR3HACKACCACiAAiEAEIIKFHgBCxC4gAIoAIIAKIABI6jgFEABFABBABRCACEEBCjwAhYhcQAUQAEUAEEAEkdBwDiAAigAggAohABCCAhB4BQsQuIAKIACKACCACSOg4BhABRAARQAQQgQhAAAk9AoSIXUAEEAFEABFABJDQcQwgAogAIoAIIAIRgAASegQIEbuACCACiAAigAggoeMYQAQQAUQAEUAEIgABJPQIECJ2ARFABBABRAARQELHMYAIIAKIACKACEQAAkjoESBE7AIigAggAogAIoCEjmMAEUAEEAFEABGIAASQ0CNAiNgFRAARQAQQAUQACR3HACKACCACiAAiEAEIIKFHgBCxC4gAIoAIIAKIABI6jgFEABFABBABRCACEEBCjwAhYhcQAUQAEUAEEAEkdBwDiAAigAggAohABCCAhB4BQsQuIAKIACKACCACSOg4BhABRAARQAQQgQhAAAk9AoSIXUAEEAFEABFABJDQcQwgAogAIoAIIAIRgAASegQIEbuACCACiAAigAggoeMYQAQQAUQAEUAEIgABJPQIECJ2ARFABBABRAARQELHMYAIIAKIACKACEQAAkjoESBE7AIigAggAogAIoCEjmMAEUAEEAFEABGIAASQ0CNAiNgFRAARQAQQAUQACR3HACKACCACiAAiEAEIIKFHgBCxC4gAIoAIIAKIABI6jgFEABFABBABRCACEEBCjwAhYhcQAUQAEUAEEAEkdBwDiAAigAggAohABCCAhB4BQsQuIAKIACKACCACSOg4BhABRAARQAQQgQhAAAk9AoSIXUAEEAFEABFABJDQcQwgAogAIoAIIAIRgAASegQIEbuACCACiAAigAggoeMYQAQQAUQAEUAEIgABJPQIECJ2ARFABBABRAARQELHMYAIIAKIACKACEQAAkjoESBE7AIigAggAogAIoCEjmMAEUAEEAFEABGIAASQ0CNAiNgFRAARQAQQAUQACR3HACKACCACiAAiEAEIIKFHgBCxC4gAIoAIIAKIABI6jgFEABFABBABRCACEEBCjwAhYhcQAUQAEUAEEAEkdBwDiAAigAggAohABCCAhB4BQsQuIAKIACKACCACSOg4BhABRAARQAQQgQhAAAk9AoSIXUAEEAFEABFABJDQcQwgAogAIoAIIAIRgAASegQIEbuACCACiAAigAggoeMYQAQQAUQAEUAEIgABJPQIECJ2ARFABBABRAARQELHMYAIIAKIACKACEQAAkjoESBE7AIigAggAogAIoCEjmMAEUAEEAFEABGIAASQ0CNAiNgFRAARQAQQAUQACR3HACKACCACiAAiEAEIIKFHgBCxC4gAIoAIIAKIABI6jgFEABFABBABRCACEEBCjwAhYhcQAUQAEUAEEAEkdBwDiAAigAggAohABCCAhB4BQsQuIAKIACKACCACSOg4BhABRAARQAQQgQhAAAk9AoSIXUAEEAFEABFABJDQcQwgAogAIoAIIAIRgAASegQIEbuACCACiAAigAggoeMYQAQQAUQAEUAEIgABJPQIECJ2ARFABBABRAARQELHMYAIIAKIACKACEQAAkjoESBE7AIigAggAogAIoCEjmMAEUAEEAFEABGIAASQ0CNAiNgFRAARQAQQAUQACT2MxoAkSWEvD51OJwFk0FbyexhBiE1BBMIGgdI0n8MGNGxIkRAIewIpUu/C/OG0tDTW4XDEXbx4seqGDRuqHDhwoLxer+c9Ho9Or9czHo9H4nn+JhmxLKtZzwRBKKguyWAwMFDG4/HAT13jxo0vX758WXf48GF+wIABR+vUqXMkOTnZrlmDsCJEoJQiAPP59OnTsQsWLKhx5syZCoIglNXr9UaGYfQMw4gsyxZ2vfVtogvzyWd+++rT6XSi1+u9YjAYOJfLxSYlJf2anJx8pFGjRp7CvAufKXkECjvASr7lpbQFv/zyi2Ho0KF35ebmPvTjjz82dzgcdYxGY2Wn0xnHMIxv8oPqq9frfSqwvwmp02knNkkqeK2QJEmCDQRph16v94ii6GsAz/MXPR7P7qeeempuYmLivuTkZFwIFONy3759/JAhQ6wOh6NCbGxshezs7DJWq9UEIoYNm16v10yY/iwmATZs11tLl9Pr9S6GYTw6nS7KYDDYBEH4bfr06Wdwob950XniiSeiYmJiah0+fPjJw4cP32c0Gmu7XK7qOp3OyrKsSRAE33wGoxZwqLKGQHNZxfwsykoIa4xbFEVoI1jd/qlQocK2u+66a+uuXbu2w/JTlMrx2eJHQLPFpPibXvreOHjw4NsWLlzYKTc3dwDHcbVhMYeJ5HQ6GSBN+N3r9YZVxwiZQ9vgd9I+sCCIoshwHAft/bV169ZvZWRkZOp0uvDqQAmi+dxzz1X78ssvEzweTxNJkh4URbEibNokSQKNzbdpI5ujkmqmvJDf8HqQrV6vF3Q6Hef1el08zx+wWCzz1qxZkx4fH59XUm0Nt/c+8sgj5Q4dOvSG3W7votfrbzMajazL5fJZ12BuwL9w/xD5wzyGuW21WiW3233u/vvv77hv375vw7392L4bEUBCL4YR0b17d1NUVNS9CxYsGO31ep9iWTaKLOSwA6f/FUNzNHkF0Sxg8ZIkSeA47re2bdv2SUtL23srn62DBaZbt27VT5482Sw7O7ub1+t9hGEYi2x2vQn7QBqaJsIqoBIYe/m1Ab6Tj3eAmS6VL1/+nXnz5s1p27ZtbqjbFc719+3b1/LDDz80Onz4cC+Xy5XAMIwJNmj+5nEg+QbSwIsDB2gj+SfLXDKZTOuioqLeOnv27GEwzRdHO/AdRUcACb3oGBZYw+eff16ua9eur/zzzz899Hp9PYZhWDBvwsQxGo2M2+32PR8OEzsYKMhCBT9lTR0m/Y5WrVoNyczMPHgrknpCQkKFdevWJVoslh4ej6eey+WyBFrQg8G8JMrChg36IAiCZDQaz5cpUyZ14cKFs1u1agVm+Vvu8+qrr0YtXbq0p81mG2GxWCo6nc7rDi1kDpemuUxbaOg5zXGcm+O4fffdd9/wvXv37kZSLx1DHQk9hHJKSEiI/eKLL4ZcvHjxdY7josDEDgQOjmbgZFaaJn5BMMkmWjDZuS0Wy1ctW7YclZmZuf9WWQTAhN6tW7fyGRkZb3m93iSn0xnjCwEI4J8QwqGnadXk2IVlWYnjuHPR0dFvf/rpp3ObNGni0PRFYV5Zt27dyqWlpQ1kWfZVp9NZHjbm/o4sSDcK+i5cuqpsIyF12XIjGgyGL2bOnDmgX79+R27FTXq4yEltO5DQ1SIVZLnXXnstZsOGDV3//vvvCTqdrizRxOkJRDubBVl92BRXLggsy3pNJtO306ZN69e/f///hU1DQ9iQdu3aNdy2bdsQlmU72Gw2c2la0APBAps1+IAVRvajAEe+U+XLlx9w9uzZjYGej5Tvt2/fHtuuXbvxDMP0FUXR7HJdM1AEOicPZKEp6U2fcv7KR2jXlQ3Q1K1W6+b77rtvxDfffHMkUuQZqf1AQg+BZCH+lOO453Q63TydTncbhHtRWuz1xbGkJ7OarqvRMogTENRntVoZh8MBi0BaVlbWwObNm19W857SWqZXr15lV65cmeZwOB63WCyc3W4HhzJfd2RTdWnt2vV2m0wmn+MmfHieh/ErCYJwNDo6emhOTs7mSPeGhvl83333tTx06NBis9lcFaxr8Ak3B1atBhq9CQF5u91uj8ViWf7RRx+90aNHj2yt3oP1aI8AErr2mDIpKSmm1NTURU6nM4FlWY4OCYLJIk8Sn+md1tzpphCyD7TDD0Hz863S3wYE+kIWOPAJAM0F+sXzfJ4kSe8tWLBgepcuXSKS1CEkrUePHt1//fXXj3ie50HO8C+Q1lacMlP7LuU48ydrIl954yZKknRw8ODBAyZPnvyN2veUxnLjxo27/b333puVm5v7giAIvjNzeu6SzZuybwU5HJYEDvkpELSZnbSLHg+wofN4PBDS9lb79u1Xzp4921YS7cd3BkYACT0wRkGXePLq5+uvv84URRG82ZmoqCgf0RHio0PB/BE27VxT0oSunOz+FgWyuFksFgY0VBKCJ0lSXmxs7Dvr1q2b3KJFi4gKZwOtrXr16s+ePn16PsMw1ZTORSTEL5D8wsVKQ7ycYbATb234nZC4v/6Bpq7X6/ePHDmyx4QJEw5F4hkrRC00btx4hCAIY/Ly8niz2eyzVgBGtGUK8CGWGRrDkpZ/oI0avenIbyzK/YSYdafJZFq4cuXKse3bt0dNPWhmCP0DSOgaY7xx40ZLYmLi2w6Hoz/J8kaIHF5Fzqhg10u0cznpBHiJgy1PD8lcwNGKLBoaNzGY6mASeyVJgrAcX3uUk55eMOA7Es8qazEQZ32mTp06vdatW/dl/fr1r7n0R8CnZ8+e0enp6YttNtsLEK9Nm9cJBvAzUGKXcCd0on3CuCV9If2DjZwoii6j0bi2efPmY7Zu3fpnBIj2hi58/fXXFZ5++unFDMM85/V6fesllWTpujWGRAPI8wHmL8xnURRFkmwJEssYlPgEIvyi4umH0KFdPAmjJL4R9Dik/SbI+2UlBJwicx955JFeu3fvXlvUtuHz2iOAhK4xptHR0e0cDsc8OYnIDQRIdvRE2zEaIceIdEWn021p1qzZ1lq1ah12u91XIOGIxs1SVR14MZOCcO7PcZzuzJkz923ZsmUmy7K3wcZEqakVtKuHsrBgmM3miyzLTs3NzX1XVUPCvBCk+OzTp08fl8s1w+12m2kTu9LnAMgPvgdN1+FwgEZrNxgMeU6n00VreCXVZWJdMZvNZVwuVxS0Fzaa9MbMX9sIgcm+IbBx+7x79+4DFixYEFGOUw8//PDDP//886der7cyIXMiN/KTRK1wHAfyvRgXF7eudevWe1iW/U0UxRxg9ZKSL7yXWFlgPrtcrtuWLFmylGGYKvB/NX4A9LGarJT8HhMTM2HZsmXr2rRpg2mfS1K4incjoWsoDNCqjUbjAo7jXrHb7SyZSMqFG/4un7eeio2NfS8jI2PJE088cTEcTZZbt269v3379hscDkcNclQACxh8KAvDTSgSEy7R6lmWPXb33Xe/tGTJkgOlPYXorl27yrRs2XKhIAjtIEFQfoQOGMharOT1erMNBsMPVapU2ZCTk3PMYrFkO51OSMgDczDfeUhbd1QO1Rvqkuv39yjZvOlMJpP5xIkTb+j1+lYsy0JKWt+xCfzLT8ZEvpSp3mkwGBaMGTNm/KhRoy6qbGvYF6tXr96rx44dmykIggHGMsxbej6TDZu8Cb9isVjeW7du3cynn376Sjh27vDhw7c98MAD39rt9tshjDaYvQbIGvrLcZzocDjO3HHHHa8vXrx4Y6Qdp4Wj3NS2CQldLVIqynXp0iUmIyNjv9vtrk3vfP2EgoDTmLt27dq9Fy9evDqcCW748OH3v/322+sZhqlFtDlixiMauD9oyEIva6awCIIW93vZsmVHX7p0KV0FnGFbZMOGDfckJSVluFyuO5VOcLSGLi/8HqvV+t8qVaqMzszMDMtjh3379lmeeeaZDy9dutQdNgBkkS9osad9K+Bc2eHwhaQ79Xr9ytWrV49OTEz8O2wFqLJh77zzjjU1NXXVxYsX29BypX1ggORlDf1UlSpVhs2aNSszMTExbOPzT506dVv16tW/YVm2BsjXn4WNNtOTOa5cw8BfxuFwHDOZTMOXLFmSkZiYiHnfVY6rUBZDQtcQ3V69et2xcOHC/8bExMSCExz8o02XJHQN7OyCIBzq3bv30x9//PE/GjZB86puu+22+//+++91DMPUVibSCGQyJosgOUvmeV7U6/U/JCUldfr4449Pa97YYqqwbdu2zTMzMzNYli1HL4rK4wjYxHAc979y5coNXrFixRfhqskAoT/66KOzBUHoRifECUa+gAOYZsES0bBhw9H79u2DkM1SvciDd/vkyZM3eb3e++ihRZvc4e8cxwkWi+WTDz/88M2kpKScYhqGhXrNb7/9VvWee+4BQq+pxvqjzJVBrI4ga9lP4KdWrVr9JzMz88dwtDAWCqRS/BASuobC69y5c4P09PQfvV6v78YSOswHnOCA4OUdsbtixYof/fPPP8PC/TKTmjVr3n/27Nl1LperNvRJqZ0Q+JRnx/B3+BtgQGKY5bzgcNlHWtWqVd85duzYQQ3hL7aqKlWq9OI///yzGG7Tyo/QYdFnWdZ5++23D/z444+XtWjR4logdxh+gNAfeeSR2QzDdIMrPklqYjUOe0qrDTzDsuzZJk2ajH7++eczRowYEZamZzVimDBhwgPjx4/frNfrq0C/wOpGLE+0M5nBYHA89thjr3311VeLwp3UCKGLolhTDQZkHsNPwEAOYbvuGCj7AX16dSPzxsKFC4+He//V9rm0lkNC11ByPXr0aLJs2bKvWZZlYfcLk17pCCefTULIRz+Xy7Um3CcAaOhXHePW6XS62jRpywv39Ymt9HYnCwHx1Cde4EDwcAWrJEn/rVq1apc//vjjaLhjoBwid95557hjx46Nhf0NfbSiNMuyLHu0UaNGT+/evfuEhsNM86qA0P/v//5vttvthstkfGsCbVL393+6ESTxDIxtSCyUk5MDz1+sXLnyjLNnz04tbfKVyUtXp06dFsePH1/LsmwZmMvEu53Imfw0mUxXOnfu/OInn3yyTXPhaFwhnKHXq1dvlyRJNcFyFkhLJ+uX4gpl37pGfCw4jnN5PJ5PwRJ14cKFv26VlM8ai0aT6pDQNYHxWiWvvPJK0yVLluyC9ZAOWVJqOnq9/pzJZOput9u3aPj6kFSl1NDhJUQrozcrSgIgjSHhTsRBDKwU8nMOk8m0PCUlZdKIESNOhqTxIaq0Vq1as44dOzZQ6cymIHS4R37PlClT2g4ZMuRCiJqiSbVA6E2aNJkjCEJXiK/3d3bub8MGL5etLj6ZwuYGxjqYY+Hj8XiONWvWLPmTTz7ZVbdu3VJ3mUvVqlWfOXv2LGy64/zM4esXLDmdzkvt27fvkJGR8ZUmAglhJaCh169f/xtBEG7S0GnfGNIEmOvEwpbfEQyUEQQBwhdXvvTSS28vWrTocAi7gFUXgAASuobDAwh96dKlu8Bs6S8chMoudd5qtXbLy8vbquHrQ1IVaOiXL19eZ7fba9P+AHQ6UMrTGTynb7qUhCyGJPxFTjwDIT5gfv9q3LhxI4YNG3YgJB0IQaVA6CdOnBioJD8lofM8/+Xvv/+eUK1atbD2+pYJfe5Vp8UkCFck8qI1UXrDRpMbPSbo8Cb4O2hqHo/n9IMPPjh6//79y0MgipBW+dprrz0zd+7cNaIoxim922ly43n+8ogRI9pOnDgRNvNh/QFCv/vuu7/R6XQ1SfIjaLCfqAUiPz3IFb6HiAciYxK2SHJPyFE7cEPblp49e748f/58DGcrgZGAhK4h6EDoy5Yt2wXhIPmZYuVF8rzRaOzmcrlKBaGDU5wgCL4zdDL5/SzqYlRU1FmbzVZJr9f7Mmrl5eX5yit39mRRAPO7TqfzuN3uBatXrx4Szt7B9DCpUaPGrJMnTw6EkDV/pmk5+xbcKf3lkSNHOlWvXv2ShsNM86qA0Js1azbX7XYnwdpOnw9D/4gzJ5hnKe37ek4Cf2lQSXpjeJbn+a9Hjhz5YkpKSqnyfB8zZswzU6ZMWSNJ0k0aumIuXB47dmypI3Q6SxzxZidZHsHAEhcX9+uVK1fqSZJkgPUMZEqiOujNK5nPkBHTbrfbTCbT0OTk5CUzZ84MW29/zSdRmFSIhK6hIIIg9HMyoQc8cwMt8JtvvokbMGBA1b/++ismJibGd+6lTPYgE+31xDDwHPwNbkuaNWvWidatWxcqzr1atWoN/vrrr/X5ETrR0Ewmk2C1WseazeaY8+fP9xAEoSI5jyUQE2KXvaGJg6AEMdllypR5p0+fPgtTUlLOaSiSkFQVBKHvPHLkSEJpJnT67BTOx0VRzGVZ9i+bzVaH53k9HbZHXbPqW/hhUydHRsC1ujvr1q077bvvvvuytJyxhoLQYV5u27atzLx586ofPHjQAgM0v3Ns4nsA3wOWQKosy9qGDRv2d9++fS8XJoqA1tBpSwwhdJjP8gbuUtmyZftHRUXddezYsTeioqJisrOvZXuFjTho63QUC/ExiIuLk3JycrIrV6789ooVK94N18iOkCwMYVApErqGQgiG0DmOAwekgIQ+cuTIO6dOnTrMarU2FwQhxul06uWJJEFqWWVqUXmS+kzf1xxTJafVat3z5JNPzm3duvXu5ORkkopSVc8DETrlNCNWrly5x6BBg9ZNnjx5WG5u7lCGYczke2invxA+Et8qiuIVg8Ew0W63zyrMQqWqMxoVuv3222eePn369UAautFo3Pnjjz8m1K9fv9Rq6PKm8Hq88tUrYn+Oi4ubbbfbJ9hstoowFmnPZ1rTI2MTNHhIRmK327/r0KFD0vr1649pJIqQVhMMoY8bN+6F8ePHF3hJDSSeqlev3v/9+eefyU6n81GWZS2Ks3nfegyTlnSM+CQQUnc6nZejoqIO1a9ff+mePXu2BBsl44/QaRCJRcZgMFwsX778y2PGjNnfr1+/2TqdLsFf3DohdXozB7+Lonj2oYce6rF3794d4T6fQzqIirlyJHQNAU9KSmqycuXKb1SY3M9xHNfV6/V+lt/r27RpY6ldu/Yzn3zyyfDc3NxHYGdPtG7YIcNuncSFF9QFSOcqCALEf/8TExMz9b333vukW7du12zhKj6BCJ2qQnr44Ye7/vDDDytat259+6ZNm943mUytnE4nT0gdCB0+5DiC1tg9Hg9sUI43b968c7t27f47cODAsHWiogkd+kObH6nfweSuitBbtmwZW7NmzTvT09Obut3uBkajkQOM5CxzSindkBYY/DUcDodoMBh+e/HFF/c6nc4DixcvDurijIJM7vLi7NPaYLzxPP/jvffe+8KxY8cG22y2rjzPV4BNJmkktBlIiGid9Jkrx3FOi8Xy0eTJk6f3798/7M3vWhI6zN2RI0fGz5o1axrP8/Vzc3N9mNHOhrSgCaf7ScELvifA+ccaNmw4cv369Ztq1qypOiQyP0KnxzC0g+f5cxUrVnzpzJkzO3v37l3v448/fttoND7r8Xh4OhwXSJ4cuZCxAm23WCywgTt47733jn/rrbc2JyYmRsw9DiqWzRIrgoSuIfRaEnrLli0f+/zzz9OjoqLg/mU9eIeTMyySTlVN08mZGCzGcXFxx+vXr9/3m2+++VzNs1AmGEJv3Lhx0p49e1bC4tWyZcu6X3311TSdTtfaaDSy4CkLJJWfp6y8SRF4nv+1adOm733++edhG9NbEKFT/fMR+tGjRws0uc+bN698v379xplMphe8Xm9FOK/0eDy+KAk1ebZBRmCOtVqtnuzs7PNRUVGrMzIyprdo0UI1YRZE6PLi7iNoecHel5qaCrcJchzHtcvMzJyq1+srEXIim0xlSJR89g6by1yDwbChYcOG4/bu3RvWl7moIXRZ3nCG3mbixInf5jevunbtWm/ZsmWrzWZzfY/H47uCFcgwUOpVQrRkXJFNHuSHF0URwiLf2LdvX5ba+awkdLKhoKNRZEe3c5UqVfIROtSdkJBwT0ZGxgqv19sQ/k/nH6CtDDSpx8XFidnZ2eDx/h+GYb5W20YsV3gEkNALj91NTwZJ6Eler3d7fq9/+OGHx//vf/97y2azXb+WESY/fZNXfqkb6Z0/WTDknNNeo9E4x+FwQMiVqk8gQiftAa2hUaNGXb7//vtVpOInnnji3i+//HIBwzCPwHkrfVZIFhIw18ppQ32PyVr8xccff7z9559//m04nrfmR+jEU1jGPKCGnpKSok9NTe3ldDqnsSzrc7wCPOAKWvKBhTbQh8gYFlOe58Gy8cmaNWuGtW3bNjfQs/C9TOhz3G53V6VTHHke6pZjj38YMWLEkykpKTZo/8yZM4fl5OSMAN8Ju92uo307AA+QJ0nKAnXBxg1uION5ftnixYuHJiYmhu1xhFaEnpmZGd2xY8dJHMe95na7fVEE9Pl1QTKi8z3QWjTgCJfBeDyeT/74448B1atXV+WAFkhDp87Fz0MCJULo0EbIbLlw4cIUnucbud1uA7mTgjjMwfyWnSB9SbTkdUgwGo17ypUrN+yzzz77MZJuXFQzt4q7DBK6hoirIXT5dQFN7hUrVlyRl5f3MskuB5oPMXXRIWNqmk9fIMGy7IHOnTs3Wbx4sSozXSBCJyTs9XrFpk2bdvv2229XkDZJksQ+88wzYGl4X5Kk+yHhDnwHixStmZBdPXxHLn7xer17nnrqqRHbtm3bFW6JSe64444Zp06dGgRn6GTzRDyGyRkydBPO0CF+4lUXAAAgAElEQVRsLT+nuA4dOlRZv349aFf3G41GHUlGRMcDq9HglPHDgiBcadWq1QtZWVmqtKKCCJ2MHXgHjEGWZX8YPHhwi+nTp/uObWbPnl3m1VdfTWZZdpher48jfgUk2xyUIbHq8Dei2fE8n1OmTJmZTZo0mbVhw4agjgjUjHktymhF6Js2barVtm3blYIgPEo0bfrYLFBbldYaym8Fjl92/vzzz6r9NAKdoVPHYEDoiadPn/6Sns89evSou3jx4o/1en1TsjGhrW702kRy/PM879Xr9b/UqVNn7KFDhzaH4yY9kAxKy/dI6BpKSktCf/jhh1ft27fvJeIRrlzYlTmW6W7Q53K06RMuVLDb7X/07du3gdo40UCEDu2QJ7YIZ+jff//9SiWk8fHxzbdv3/6eJEkNiR8AXYbuC/kd8r57vd6DLVq06Ltjx44fwonUgdBPnjw5iPRFGa9NNPRAhP7888/Hf/7555+6XK6b7slWhoLlN0yVZ5/ypk967rnnem/ZsmWRmuEdSEMnbZE9oL8bNGjQ09OmTbuu/WdlZRnbtWs39qo5/U2O40xEOyNaPdHcCAFQYybHYDC8BQ6bW7ZsCTufiWAIvSCnuM2bN9/Zpk0bsFw9SFsslMlq/MmK9j8hqWeJedxgMEg6ne7bAwcOtKtXr56qXAdKQlcegZH28Tx/vmLFii+fPHnypuO5OnXqJPz+++9zoqOjy9hsNjjQv54SmvSBvmmSbNhZlt3drFmzxC+++OKMmnGJZYJHAAk9eMzyfSI/QvfzAMShd3W5XPl6uTdp0uS9vXv3QvIS39k5HSaS3zl0fg0jC7LJZAKS3DhmzJjElJQUVU4q1apVu+/cuXMZcIMcrSlQN2yRYwCxfPnyw+699951cXFxDIS4wG5dr9cbTp06pT9x4kSnnJyct8DfhrRTSUb03+VNiaDX67OaNWv2xpdffvm7hqIqUlVKDV25mSKRBoEIvV27dp03bty4TBAEn+UimHNzJYZEM5K9lMXmzZu/+eWXX85S01Eg9MaNG8/xer1dSVIkpaMfsUSYTKbdAwYMeJYmdPiuYcOGNY4ePfq2w+FoK0mSkWwk/cmYHE3IEQ6/V6tWre+cOXN2t2rVKqxIXS2hS5J0+a233srXyz0rK6tCmzZtZuv1+o6QuIdcZAMbnfyc4iit+AayJHNfljM4kq49cOBAr7vvvlvV8QqdKY4+7ybypQj5PMSTP/HEE1/l5ORIBoPBxxVwrPK///0v7qpi0FUQhN5OpzO6oDFGNugywdsrVKiwqH79+u+F03xWM0dKSxkkdA0lpSWhN2/evNOBAweW5uXlmaGJJC88/TssmgXdSU53DZI+2Gy2HJZlB1yNKV+mtttA6P/880+Gx+PxJZbxt5kgaW4lScozGo0er9cLzk++81TIvOL1eiFUzsCybAzUQVKE5tcGhcnZazKZMlq0aPHGli1bwuKGtmAIff/+/fmaQ9u3b//kxo0b13u93ljKF8Ena9qTuCBZkbA/2ETAxg2wFUVRePbZZ5O2bt26Wo2c5Vzuc5xOZ1cSoZGP1QEc8Pa0aNGiwyOPPEKns9WPGzfOGx8ff9uOHTvgeKW1KIq+kIaCCJ2csbtcrtMWi2VSXl7e/HCyxLz11ltPT5o0KS1QYhmGYQokdLDkNGjQ4NmDBw+uNplMMUTTDpRHHfBT+iQQrV5OypRnMplGXr58GcLKVN1sp0z9Ss9neixBmKHBYMgBB02IQCHOePB3p9MJUTOQ2riMx+O5FrqSz4c+boE1yOl0CqIorl2wYEGfXr16qdqEqBnDWOYaAkjoGo4EtYSu0+nOWyyWAlO/dujQoVpmZuYnLMs2drvdlqioKB1kXiOpFgN5QNOkCKY5p9PpiY2N3TNkyJDksWPHqs61TEzuer2+NuXpfG3w6HQ+8iGTVkn4xDJAOwDRcfNqjg1kC4X96uLx3po1a6aqdfTSUKw3VaUhoVfMyMjYoNPpHtXpdD7TJfyjF9lgNDjAE26/cjgcl+Pj45/dunXrD2pwAEJv0aLFHAhDA0KnwyGVTlksy2YbjcbP4CY5m80msiyrh/fecccd3PHjx708z9fLy8t7QK/Xc2rvU79qdhevXt167JlnnmmblZX1v3Ahda0IHWRw/Phx05133gk32iUIgmAFX4NgLDL02bT8nNtgMHzRt2/fVz/88MPjauQMZWST+y6e52sRCwGZn8QBk3ayVF5IQ+Y9mfOB1iEoL1/I5HN+hX6Aj0eZMmVemz59+vpgQmjV9vFWLoeErqH0tSR02NVPnjy52ty5c9ueO3eup9vtvothGBO53hLIUqXJDu7kPsSy7OZ+/fqtmjFjxi/BOKWQ29bgPnRa2yKagyLr2023dNGkTciJPjv09zdaJPA8nP3n5eVdrlWr1uu///67auuChqK9oapgCL0gp7idO3dys2fPbpWenj4vKiqqMiyksECC1QX6DAugmnNWkAGx4Hg8nn+sVuu7H3744Qc9evRQ5fgIhP7444/PycvL8xE6WdDzs8aQcCtao5MBAq3NtyGgNbNAcqBCoLb36dNnwvz58wtM0BKoPq2+V0voYHJXk1gmJSWlYmZm5n9++umnF6OiourabDZfjoaCPiBb4pMAxq2oqCiP0+k8WaZMmS0vvvji+x988MGJYOYzIXSO42opyVgRpXG9WcQCRzbwwR75kXWDHNPJlplzLMt+4HA4JofLBk6rcVOS9SCha4i+loROmrVv3z5+6NCh9zgcjiZWq7VMdnY2CxOK47jrC68oijckGyGLqyRJYDbLrVmz5t7evXuDg5mqBZ6GpG7dug2PHTu2FlK/BtIoaDMtOZ9TamlKLSAQoVNtkWJjY7eNHDnypZK+Y1srQoe+ZWVlxbzyyiv9L1682IXjuGqSJJnpfNmBFnwiE4PB4BIE4Z/7779/YceOHecEg9HZs2ctNWrU8IWtAaETS4F8Tuvzbve3iNNnsEoC9+fUl5/5nYTreTweryiKPyYnJ3ecO3duiTtOaU3oRFP/8ssv686bN+8xj8cD9x7csAaT/5M5LW/UYKMEmz3JbDafM5vN+xs0aPAbiTQIZgkjhM4wDNy2dtP6n9+mm0Rx0BZCNcROec1fTzYkO+fCmnUqISHhgfT09LANXQwG23Aoi4SuoRRCQegaNq9QVVWoUKFhdnZ2usfjqQOTk+zSycQmJjmirSkJHDQMQhDKNLUFmdxJYxWheufGjh3beuLEiapMyYXqsIqHgiH0gs7QyavmzZvH5+bm1s7Ozr5nxowZVQwGA+dyuXw+CErMyGaNPOt2uyWr1QqbnYuDBg36bdCgQT8Hmw6UXJ8KTnHg80DyG9AETBIUyfnEfa9Xto1sPoi85YU7IKJkHMhWJ8FsNk/7+uuvxzVq1CioNMUBXxRkgVAQepBN0Lz4/v37qz700ENfS5JU69qpma5AKxD9vRoCVzbYX/0kygHO49u0adNo3bp1P2ne0Vu0QiR0DQUfDKGbzeZXSsN96E899VSDHTt2pPE8fyc4yASCCyY9IXd6wSfmPDqpRqC64HuyIMgOX9mjRo3qPGnSpBK9pS4YQi/I5J5f//2F9gXCqihmy40bN1pefPFFn4YO76bPTZUZ30g7lEcpJJSKLPrBkjmcrcJRAyRLcbvdmbt27erZvHnzy4H6HcrvI5HQMzMzq3bo0OErsLgBmxPNG3AMdLyjzEmgFnul4x08B3/zer3ezp07t1y1alXY3yOvtq8lXS7gAl3SDSxN71dL6Hq9HkJCSgWhZ2VlVWvTps0ShmFawGIPBEsuWiHJQ8iOW6mdE5OtMqNdIK2AyFxp/tPpdJeHDx+emJqaqjp1bSjGTzCErkZDD0Ubg6lzxowZ5jFjxsx2u92vEEKnsScLMn1conTcI2SgNMPnY2HwNU8pX2KRgHC/1atXd27btu0/wfRD67JjxoxpOWXKlPRAXu5qz9C1bl9h6pszZ07FAQMGbGQY5mEQgT+nN6Vs/PhK+I1eyK89yrN5MnbAWfell15qunTp0j2F6Qs+czMCSOgajopIJPS0tDT2zTffHH7+/PmJoijqQYtSnoOrhZD22KY9a4mnPNkowHf0uS11Nn959OjRiZMmTSpxQqcTy9D9p4jOlymuNBA6OOfFx8dP8Hq9Q8E7nc65T45Z/BGzcqFXliXf09of7YdBHCtp6w2U5Thu55YtWzq3bNmyxAl98uTJ6QzD5HsfuixvVU5xaudJKMsdPXrUeNddd01lWRbSP7MkdM6fBU3txpto3MQxk1jh/F3xrNisS127dkVC11DgSOgaghmJhA7wdO3a9d709PR0p9NZ22q18kDqgWLJg4GVJKIhCwgskqDp0YuNbBpEQg8G2CDKdujQ4YVPP/10jtForAq55AFvf7HwgRwjZUL2aXBEfrTDnL9zWJpM4HeWZb/YtGlT5/j4+HNBdEHzoqChRxqhA0jt2rV7aOPGjTMZhnlMFEVfoqdA5vaCwFVa6JQ37vl7Vt7cI6FrPGqR0DUENFIJHSDq3r17jR07diSdOnXqPzqdDm4FA6ctX/5x6nOTtz2tlSug9t3XLjthQaIKjuQzp/OAwzNhqKG/e/LkycH+zroVGvoX+/fvTwz3+9DlBV1Xv379144fPz7M4XBUJeFnSnOp0kkKniWZz4AU/MUlK7U/QvBQHp6lx4hM6Kiha7gu+atq//79FR5++OFUlmWfFEWxCmQrpPNFkGcCET01N+lNAeQn4CG5VH7dQEIPjYCR0DXENZIJHWDavXu3+fnnn3/C6/U24Hm+HITF0Qu4MgQnELQQmsPzPHfp0qXKJpOprdPpjKIJnDhekQUfztDHjBnz4oQJE/K9pS7QO7X4/o477og4Qgdc4KKVQYMGDRQE4XWGYaIFQfAFSednds8vSgHKk/hpKm+7L9SSpD6l5aAkdJ7nv9i8efPLaHLXYrTmX8fKlSsrDRo0qIHH43lQFMWyoihCSOwNGefIvQR+avFxh+zc5ktbLB/FQcKc2ufPn49nWdaanw8FIfQuXbo0W758+e7Q9vTWqR0JXUNZRzqhawjVDVWNHTu26ZQpUzL1en05f+kwkdBDhfzN9X7yySem77777qGdO3fedfTo0UotW7ZkypQpA6FxPm1a9nPwhbaRf2BiJR7QxDHyyJEjzJ49e3xlLBYLlDc5nc5WBoPhAeABOmUx7RwHGwAg9E2bNiGhF5/YNX0Ty7LPmc3mT2w2W6VAGjoSuqbQY+pXLeEMhtDNZnOBqV+1bFe41zVo0KDG77///qeiKJYnu346vA0JPdwlGLh9ffv25VesWAHZ6HpcU+yu5TQgaWZpL3me53fCGTpq6IFxDccSsbGxT1+5cmUpwzCVkdCLV0KooWuINxJ64cB8+umnm27fvh1CacpAekhIdUl7viOhFw7XcHoK/A2sVutCu93encQ/Q/uUoWugoRsMhp0bN25EQg8nAQbRFo7jnhEEYQnHcZXzu4AGTe5BABpEUST0IMAKVBQJPRBC/r8fPnx4k+nTp2/U6XRlyZk87U0dhoR+w33odK9Kq1Nc4SSn/qmUlBT9xIkTF+j1+h5wMQkJSySaOa2hI6GrxzUcSwKhXz1HX+Z0Oiuihl68EkJC1xBvIPQVK1Z8Q26soqtWnBOet1qt3XJycko045mGXS9SVXCGPnnyZDC5l6W9qGkPWlmbCxenOCT0ICUOhD5lypQFXq+3JzxKe7fT3tUgcyB0NLkHCXAYFbdarc/a7fYlkiQhoRezXJDQNQQcCb1wYCKhFw630vQUEnppklbR2oqEXjT8ivI0EnpR0FM8i4ReODCR0AuHW2l6Cgg9NTV1gcfj6amMP0cNvTRJMnBbkdADYxSqEkjoGiLrj9CVZmNYvCCXe1RUVNAm95SUFMPatWur63S6Ow0GQ10wW+bndBKgW76kLmq6Dlc2+ikHf4OLHXx5YViWvShJ0rH58+f/2qxZs1w19dJlkNCDRaz0lUdCv1lmkiTpW7VqVTMnJ+ehvLw8iPAwwLyEOUdCBCGevygf6n4Fv/OdxJHDOwwGg06e77annnpqf+fOnY80adLEEez7kdCDRUy78kjo2mHJdOvWrfGyZcu+pc/Q/WVSKgyhp6SkcNu2bWv9008/DXe73fVEUYyBpheQiU2TngXIFOW7p1kQBC/HcecqVao0a/ny5R8Fe+86EvrNoho+fHgsx3F3CYIQp0zYQ+7K1kTA186z893cyWFlksvlcu3cufPPgwcPni7MzW5A6NOmTfvY5XJB2Nr1cDX4/VbU0IHMExISmn722Wdjc3Nzm0uSBMx9PZyP3IKmvPBIK5mTeuA9sGmgUjnDnBY5jjsSFRW1cs6cOXMSExODuq88GELHXO7aShQJXUM8gyH0YOPQ69Sp8+Cff/45HxJzeL1ePZ3YQ8MuFKoquPoSFga32/13+fLl39u4cePsxx57LEdtZaWQ0EOWKW7nzp1Rb7zxxoPnzp177cKFC40FQbDSpKfEVPK/48qPoG+a777r8wr48DwvOZ1OCbQ3URT/io2NXd65c+fVH3zwwQmwzqiVMSF0t9vdg1y+QzaktxqhA5l37Njxua1bt76j1+vrer1ejqQ7VqY9VotvYcvRt+NBHTCXZesAyNzOsuz09957791evXqptrwhoRdWGkV/Dgm96BheryFUhP7MM89Yd+3atcDtdifAZVSwo3Y6nb73hlpDDwQPucBD3umDuTC7WrVqb5w8eXKJWk0uGEIfNWpUONy2FhJCT0lJiZk+fTrceJaUl5d3O6ReJTfb0RpVIJkE832g8UPIFsIIZc3aLknSV6+//vqrs2bN+lPtu5DQ/0VqyZIltycnJy+TJOn/IOcCyIDcTEdr5PRtdWpxVpYLJF9yQxpteifrCjwbGxt7+rbbbnvx0KFDqtOzIqEXVlpFfw4JvegYhpzQo6KiIH96msfjqUDfX1yQ5qZhtwJWRWLG4SdodAzDbFqyZMnLiYmJtoAPMwwzevToJlOnTt2oJmwtkgm9efPm8d9991262+2OVmqvanAMRRk6jBC0OTk3u7tGjRoTsrKyptetW9el5r1I6P+iNHDgwBYffvjhSpZlK5O8C7ShRZlsRw2+hS1D335HbyDIhTo6nc5bo0aNt44ePZqqdoNutVrj7Xb7UjVha2hyL6zk/D+HhK4hnv40dH/Vwxm6WpM7OJ6ZzebeHo/nPZZlzeQ+cmVqVDIxydmbWrIPtIPP7wydfo6UAcsBtEMQhO8WLVr0Qrdu3VRdf6mG0MPs+tSQaOiNGzee8v3334+AC0z8XV2q4VANuipyyQo8CHJ2u92/paamdhg+fPj/1FRGEzo5LqKfI+MXNoU6ne6LLVu2RGwud7PZ3Mnj8SwUBCGGzFd/hK52DheEv9r5TTZu9B3mIHOQhyRJK9u2bdstPT39hotb8nsvEHpeXh6kfg0Yh/7SSy81XbVq1R41YwjLBEYACT0wRqpLhILQ4eXlypXrdunSpdkMw1jJxIcFH3b3oLHTt17B34H0oZzFYmHgbutQfGgtgpgMoS1wUYcgCN+sWrWqQ2Ji4nk170ZCv4ZS48aNl37//fddQZ4gw/xuM1ODqVZl6I0Fra3zPH+hXbt23dPT0zereRcS+r8oRUdHt8vLy1ssimIsfZe48oIbNbhqUQbSLTsc15zZ4QydHOfJ+fYlo9G4yG6391EbGYOEroVUClcHEnrhcPP7VKgIPSkp6cFVq1atEQShNtxcBYs9kDnRamhC1bA7BVal3PnDBgIWA5fLJVqt1gWLFi0anJiYqCrkBQn9GtQPPPDAkt9++60bLK40eRaXTAO9B8gHxhyEShoMhosJCQldV6xYsSXQc/C9TOgL3W5391tdQx8yZMijM2fOXClJUi3AAjbB9O1z5GiD/psajAtThk6xTJ6H95OLc3ied1SsWPH106dPL1BbfzAmd9TQ1aKqrhwSujqcVJUKFaGD2b1SpUpvOJ3OSTk5OSZoDNlVEy0OFlrQpsjumjadFdR4tSY52hNZWR9l5oeQl9/i4+MTN2/efEgVaCrP0G8Rk/uE//73v2PsdjvcKX39rmkaxwBhhDdBrla+BckKLD3gvAWbSEIALMvumzFjxsuvv/76UTVyRkL/F6WlS5dak5OT5zidziSj0aiDOUvmsWzi9lne4FNU+SmdKv3NXTk3hq8NJK+FrCxIer1+f79+/Tp+9NFHJ9TIGcogoatFSvtySOgaYhoqQocmNmnS5I5ff/11QnZ2duvY2NiYvLw81uv1+qKOQDOGxVYxGQMuBmq6ns+CAhllfI/DYmA2myWO4wS32/3jbbfdNmXKlCnbEhMT3WrqhzKooV9D6tlnn31i69aty41GY1WXy+WTbbAErhZzteVopylifjebzbZy5cqNnDFjxny1ckaT+7+Iwwb98ccfv/vEiROjT58+3ZJhmAosy8KFNb5La2hyJ8Sen7yKSviwgYB1Qza1w4YcfHYkm82WGxUV9UflypVnZGZmptWvX1/1fEZCVzu7tC+HhK4hpqEkdGjmxo0bLf3793/q77//bi+K4qOwgYebq2DRNxgMvhAnmJy0Cb6IE95vPDNdp8fjAXL/k2XZvVOmTFk+bNiwP4KFFAn9GmLz5s3jt2zZ0mXbtm0jIROgw+HQKTMBKgm+iPINuOkjvhhALKClm0wmp9PpzPj555/7N2jQ4LJaWSOh34xUVlaWcejQoa3//PPP7pIkVbPb7VYgUzmnA3FIKxDifPIQ0M+oXuPFax9werwQExOzJi4uLvOPP/44pVbGpByErTkcjiWiKKJTXLDgFbG8amEX8T23xOOhJnRZI9YfPHgwtnfv3nGw0wdCh7//3//9n9ShQweIG2WuXLni23EXx8dgMADp53Eclx3MLp5uGxL6v2icOnXK3KNHj+f27t071Gaz3a7T6VjYuNF4FafWLpvYfal+DQZDjsFg2Na/f/95qamph9SGMUHbkdD9z8adO3dyBoOh7KpVq6zdu3fXA0GDCb645q+yVYMHDwYHOce8efMuPPTQQ2ACVJUimq4HCb04Vl7/70BC1xD74iB0DZsbNlUhod8oCtiojR8/vgzP89V0Ol002bTlJzCtU8HS74G0s7L3tcftdl+sUqXKieTkZE+wgwcJPVjESm95i8XynNPpBC9+1NCLWYxI6BoCjoReODDVEDrUrNPpLodDYpnq1au/e+rUqcFEc6bPuqnfJZ7nvzhw4EBi/fr1g8qFXTgUw/upSCV0+cgDxuULkydP/ia8pVA8rYuJiXkuNzd3sZrEMujlrq1MkNA1xBMJvXBgIqEXDrfS9BQSemmSVtHaKhP6EkmSKuRXk7wRkpDQi4a18mkkdA3xREIvHJhI6IXDrTQ9hYRemqRVtLYioRcNv6I8jYReFPQUzyKhFw5MJPTC4VaangqW0Ddt2tQ5Pj5eVergUOEwZsyYlpMnT05nGAYcUP2+Bk3uN8OChB6qERm4XiT0wBipLoGErhqqGwoioRcOt9L0FBJ6aZJW0dqKhF40/IryNBJ6UdArmobeNS8vb5uGry+1VSGhl1rRqW44ErpqqEp9QST0khMhErqG2AepoSOhy9gjoWs4CMO0KiT0MBVMCJqFhB4CUFVWiYSuEig1xZDQ1aB0cxkk9MLhVpqeKo2EPmrUqKenTp2ahmfowY20mJiYZ3Nzc+E+dPRyDw66IpdGQi8yhP9WQAgd8iFDbvX8Pjqd7rzFYglaQ4eEI61bt4578cUXK3u93iqQ9ENN80OZeMRoNEJmq1yLxXKhbt26Zxo1ahR00hEkdDVSLN1lCKG7XK4e4GAGKUbpD52/HO5DDwenODWELue6vzxu3LgXxo8fH1QcOsznmTNnlhk/fnzN0aNHR1WuXJmF9LqQMx8+8DvgUhwfSO27atUq5uuvv4bUr47Zs2cfP3HixLmUlJQbBaWiMZApzul0LhUEAQldBV5aFlFFCFq+MJLrCiWhp6SkGFatWtXs2LFjvY1G4302m60iLCawKOSDqc8ttxjShEIud4ec/3ne7Nmzl6q9sIO0Gwn9ZglKkmRKSkoqn5ubW1YURU6v1193s4bf6as16e+gJq/XqzpdJ1zdCZ+CstFZrVYmOzsb7mv/Z9y4ced1Ot21q8CC+CCh3wiWJEn6Rx999L5ff/11pM1mewAyArIye9O32gUBcaGLkpsbYSOh0+lEQRA8HMcd4Xk+c9KkSUsGDhyYE0zlMqEvEQQBM8UFA5wGZZHQNQCRVBFKQp86deoDqampC3NychqCZg7Xo0LOZzXXI2rYxZuqkhcB321vPM+fFgQhdeHChcuSkpJULwJI6P/COm/ePMvff//96Pjx42Hj1tTj8cSRb+XNWUF53ckmTi2h+250U37kv/m+EAQBrtCEf/Dfw2XLlk2fOHHi5r59+x6BxV/t2EJC/xcpIPMGDRo8+/vvv8/0eDy1Y2Ji2EuXbk4mCCl3i3rbWiD5EPmT94CcYZMHa0tMTMyVq8cNszIzM6e3aNHCFqgu8j0SulqktC+HhK4hpqEi9NTU1Nh33nlnCVydCrt4MFcCgRIzpYZdKHRVsBDwPC8ZjcbLUVFRY8+cOTNH7cUOSOjXYH/ttddili5dOtbhcLzEcVwVu91ePPZWhdRpkicWHnJJC8/zdlEU93z22We9n3rqKdV3ZCOh37Bpu33AgAFL9Hr943AFMrkylRxDwFyCvxXH9bnkHdHR0Uxubu71RpLrVM1m85lWrVq1X7du3T61iwMSulqktC+HhK4hpqEi9DJlyjTNzs5eq9frKwOJg7k1nMhcnvy+NgEB8DyfsXbt2qQ2bdrY1cCLhH4NpRYtWjy+a9euNYIgVAJMHQ7HDdebFub4pDDXq9LPgLYG5EL7hOj1emetWrVGgYapRr5QBgn9X6Q6derUJCMjYw3DMNVApoTA5WuQffMbLHDKq3PVYh1MOXodoSlxUy4AACAASURBVK190Ba5bZ4HH3xw+L59+1TLGgk9GAloWxYJXUM8Q0HocEZerly5XpcuXXrfYDCY6bNTMHfT/9ewK6qrIiQDJACLg7zw7120aNELPXv2PK+mIiT0ayg1bdp07P79+8e7XC7fHffwKQyJq8G8MGXkW9d8TlsOh+OHmTNnvjR48OBjaupCQv8XJaPR+ALDMEtdLlcs/FV2rLsBRjXmdjW4ByoD8xbeLx+Z+ZwVafM7tCM6OnrJhQsXeqi1uCGhB0I9dN8joWuIbUGErriRS7WXOxB6VFRUN7fb/ZHH47FCc6OiohibTfWRloY9vLkq0OCIxQD6CIsBx3HfLFy4sGO3bt1Upe5EQr+Ga6NGjZbt27cviVg8Qiq4ICoHAidaOpG3yWS63Lhx4647d+7crKaq0kjoalK/FsbLvXPnzm1WrVq11Gw2xwGRgiYOGjlsiIlfDBBrSVrhwBEyLy/P1y6e5xcPGzasT0pKSv6hO9QgQEJXMyNCUwYJXUNc/RE6IfLCEjo077XXXrvngw8+SDeZTPXgzI2YP+VzTQ17ULiqiIYBCxDP82KZMmU+Xrly5estWrRwqqkRCf0aSk2bNv1k//793cHUXlwm10DyocctCaGSz3wv1qhRo+sff/yxJVAd8D0S+r8ozZ8//+F+/fqt0el0NclZOXwLJE6sIMqwvvwwLsyRir+65IgZYmb3tQXkzbKs/c4773zt0KFDi9TIGcogoatFSvtySOgaYuovsUw+ji3njUZjV5fLpSr1686dO7mOHTuOstvtowVBMCh38hp2IeiqoH9kYwEkpNfrT7ds2bL7pk2bdqitTA2hg+kZ7kMfPXp04qRJkz5XW3coyoXqPvTmzZuP37Vr11tkcaXHTkma3snmgiYbg8FwcOLEiQnDhw8/rAZjIPTU1NSPvV6vLw6d9t4mpAR/h3dIkvRFVlZWqbicBfrOsuzlESNGqL4PPS0tLTYxMXGpXq9/gRA3zGli+oY6ieyLQ+4gX2gHvAusMST+Hf7PsuyvY8aM6TB27FhVciaE7nA4loiiiGFraiaHhmWQ0DUEM1SEDk1MSkqqs2bNmjmCIDSJjo42XblyRR9od65h126qirxbXoQkjuMEq9V6/I477pi5bt26RXXr1nWpfT8S+jWkWrRo8fzu3buX63S6WKfT6ZubgWQc6gWfxCgTUpcdp5yxsbHvrlixYmKrVq1UyVkm9AVer7dnJBL6qFGj2kycOPFbtWO+ZcuWT3z77bcTJElqIElSDOQBoJ3gaMue2jr9lQs0fojfC03mZrNZ8ng8bkEQ/r7rrrveb9269bzp06fnqW0HaOhI6GrR0rYcErqGeIaS0NPS0thNmzbV3rZt23MXL158VqfTPejxeGhS9ytLPwv+DTHKdMxxQVCQhYH6CQllRFk7PxcTE/PD7bffviQtLW1vMGQO70RCv4b88uXLY3r27DnQ7Xb3YRjm9nAxu5OzXPlcVYiJidn57rvv9u3Tp89xtdOHELrH4+kJz0Sahh4soQMetWrVumPSpEntT58+nWC32283GAxGmE/gkwLHasRSoxbjQpTTyYTuyzNgMBhESEokSVKu1WrNHDhw4MbmzZv/EB8fr5rMoQ0Wi+U5p9O5GDX0QkikiI8goRcRQPrxUBI6eY+cLtK0b9++KjzPX5efx+NRm0ykSD0m72RZFt7Hg2ZRo0aNv8eNG5dbmAxiSOg3igOSjjRu3Djh4MGDw/Py8urq9fpreUDlTz7e75rNY6VGJ5tdYfMGnvfZ0dHRn8bHx7+/Zs2a/wYzkJDQ/aMF8l62bJl57969Zc+fh5O4f8UNcxocJOGjdn7Ta4Ia+QiCoCNmdjg9MBgMHo/HY1u6dOnFws5nJHQ1yIemjGYLQWiaV7pqLQ5CL12IqGstaug34pSWlmZYt25dvR07dtR3u92QKQ7m6fUNGwkfCpRFTB36fktdXxfASgDvt9vtXqvVemLq1Kn7kpOTLwRbNxD61KlT53u93l7KXO6RcIYerIYeLH6lqTwSeslJCwldQ+yR0AsHJhJ64XArTU8RQvd4PL2g3bQXNxJ6aZJk4LYioQfGKFQlkNA1RDZIQk9yuVyfafj6UlsVEnqpFZ3qhiOhq4aq1BeUCR283PG2tWKWJhK6hoAHQejn5LA1JPTgnOIujR49+sVSFLa248CBAy/Wr1//5ps3NBx3paEqJPTSICVt2oiErg2OhakFCb0wqOXzTH6Z4hRJZSDeEwmdwjAIDR0JXcPxWpxVFXSGDu0gyYlKWxw6zG3IjzB8+PA2U6dOVR22VpzYF/e7gNBdLhdcn4oaejGDj4SuIeBI6IUDM4IJ/YsDBw4kooZ+LVNcfk5xSOiFmzfh+pRM6IvxPvTilxASuoaYI6EXDsxgCH3s2LGJEyZMUJ2FrnAtKvipUGWKC0Vbw6VOIPQpU6YsEATBl1hGmdoUNfRwkVTR2xFM6teXX365yYoVK/YW/a1YAyCAhK7hOEBCLxyYSOiFw600PYWEXpqkVbS2BpMpDgm9aFgrn0ZC1xDPUBN63759+Q4dOkTHxMSY9Xq9jqTlpLtgMpk0TTBjt+d/pbler/eazWZbgwYN7GqvVvQHNxK6hoMwTKtCQr9ZML/88ovhypUrUZ999hkkitJNmjTpeqGLFy8y5cqVKzZpwjz3er2Q+TG7cePGzqLMZyT0YhPbTS9CQtcQ+1AROiQa2bhx4wPp6emtOI5r6Ha7KwqCwEHSD3LzmopuaEr0cqITh8FgONqpU6dttWrV+jolJUXVdanKtiKh34hISkqKAW7JdblcrNFo1LlcLp/s4HclduQ7f/JXli+orPJ58qzBYJCuXLnirlWrlj05OdmjYpz5LYKE/i8sO3fuNGVkZDSePXt2S4Zh7jUYDOXBL9But+vBaio7Bvry+AuCoPW8vUk+cNwBa4kkSW5RFP/r8Xj2p6WlbUhMTCxUdIbVao13OBxL1aR+RQ29sDPK/3NI6BriGQpCh8V95syZPXNzc8eIoliJ4zgW8i/DjUjk3FHRBTUyDWaRoOu76Tm4LtXr9dolSfo5ISGhb3p6+q/BQoqEfg2xjIyMuCFDhrz4119/PS1J0kMOh8PA8zyQKJGBGtnS8CvlddPzga7pBEKJiYm56HA49latWnXZ4sWLf2jRooWqe7HphiChX0MD7mQYMmRIz5MnT74VFRVVWRAEFq7LhQ8QOLkshdw7H+hylWDnmrI8qR/Ggfy7aDabXTExMevGjx8/PDk5+a9g34GEHixi2pUPdoHQ7s0RWFMoCP3VV1+tPG/evHSj0dgU8i7DxINbmYi5Xb79Kl80Q70gQHssFgtoEsIDDzwwYs+ePdODFS0S+jUv8IULFyafPn16Asdx5SBHfj5X7wYLb4HlA93WBuNLvoBHZBhmz8CBA/vPmDEjqDzu0AAk9GtiePnll2utXr06w2Kx3Ac36pH0vfTtauSCFtCaQ5je9/omgjgpwmYCcsfn5eWBxn6xUqVK40+fPv1BsAMOCN1uty+VJCng9amooQeLbsHlkdA1xDM/QodXKLTpcxzHdfV6vQETy9SpU6fT6dOnFzudTis96WES5qOha9gjdVURk53X6929aNGixFdeeeWMuievlQJCnzJlykZJksr6e47q96VI9HIH34i1a9d2vXTp0niO46rBMQq54SwYHENRFrAH+QKxWK1WwePxfJ+YmDhg+fLl+4N5Hx22Bs8piay0ernLc1tVHHpWVpbxhRdemKrX618XBEEPGNBpb4PBU6uy9Dgjl7QAqTudTsloNJ7s2LFju5UrVx4I5n1GozHe4/H4CD2/DaPcbykxMbHJmjVr0Ms9GIALKIuErhGQUE2QhJ7k9Xq3F/R6uFktOjr6Pa/XOwB28/TkKw7tDdoW6D2gTcBiDFc+Go3Gs2+//XbnQYMGfR0MrLc6ocfHx1fZvn17Fsuy93u9Xh3gCf/o+7GDwVPrsjDuCAkbjUYPz/OTN27cODkY03tpJPRRo0Y9PXXq1DSGYeIKsmRcJWhVhJ6Wlla2c+fOqwRBeMbPJr9QYgtkgQtkgVG2Q7bG+DR1p9Pp4nk+2ePxLAmmcUjowaClbVkkdA3xDAWhV61adc5ff/2VTMic/IQFH34Pl0UfFgJRFM/GxMR0zs7ORkJnGInneVWJZZ5//vlXsrKyFkVFRenhPJU4OoaLBQamiCxfcJySWJZdf/jw4V61a9e+onb6IKEzzPr168t16NAh3WKxtICjKqfTqRa+kJajrk+9bvWTLTMuhmFeEwRhQTANIISuxikONfRgkA1cFgk9MEaqS2hN6PDiBx544M3Dhw+n2u12juye6QYF2qGrbnwhCpJ3k3N8r9f7S3Jycvt58+YdDaa6W11Dr1OnTv8//vjjA7DIyKlEfQtrEBEMwcAdVFl6zMmbSSk6OnrL3r17uwaTAS9IQt+RlZX1cnx8fKGiJoLqYAGFg9HQR44c2Xry5Mm7C3r30qVLrb169frY4/G8BOWCjFLRqls31ENr8PSxh2x1y+nUqVPC2rVrAx4N0pUCobvdblVn6Ejo2ooVCV1DPENB6A8++OBD+/fvX282m6t7PB6fEw3ZUasxp2nYvRuqos/+oD0QtxoTE7N08eLFya1atYKdverPyJEjG6empm66Vc/Qn3/++ed37NixWpKkKAANIhjgE+i4QzXAGhQEYpdJSPJ6vSt37tzZr1mzZrlqq6YvZ5HDsW7oo+IMPSIJHTZsNWrU6Hz27NmPRFH0mfHpOVwS8xk2FWDlI8c8sL5AOyC6guf5rffdd1/Sd999l6NWzlAOCT0YtLQti4SuIZ6hIPQnnngi6qeffhqRk5MziOd5C5A6mfglucMnhA5k7nA4RJZlj8fHx/fMysoKytwO8Ecwoau6ba19+/blsrKylnIcF5+Xlwex5z6fhJJY4JXTAbRyCKEC8zCQusfjsZUvX/6N8+fPL9TpdOD5ruqDhH4Npm+++Sa6TZs2o7KzswfqdDoLbWHzR/ChtsDRYwzeJW/ORUEQtk2ePHnE0KFDf1YlYKoQEnqwiGlXHgldOyw1d4ojTdu2bVvFxMTEQXa7vafH4ylvNpv1sLjm5uZe95LVsBs3VaWc9ER7hOQyRqPRBd7tjRs3nvHVV199ptPpgo5RjmBCV3WGDprbk1c/X3/99cdms7mGzWa7boUJpVzV1E1bCWJiYgSv17th2LBh/0lJSbmg5nlSJr/rU0n9pV1DD+a2tY8++qhy//79U3mebwWaOgTBwL/CaOuBCD/QphA2bPJGjUQe2PR6/dEGDRr858CBAz8EI2NSVib0JZIkVcrvefRyLwyygZ9BQg+MkeoSodDQycvT0tJix44d+6Ber2/g8XisEJMOnqiBEoMEilMnz6tJ9QjEQ9oD9UqSJIiieLxWrVrfbdmy5XRhyBzqk8/QP5UkyW+uy0gPWwMMIBvg6NGju/z+++/99Xp9DUEQog0Ggw409ZL8yETrMRqN2TExMbtq1qw59fvvvy9UHPrUqVPneTye3tAfatz5LBHhGLYWzBl6MIQO/c/Kyqrw6quv3mM2m+9hGMZvuKYWcg+0PsA7wFfDarVKHo/Hq9fr/8dx3LEDBw78LxgLDN1W1NC1kFzh6kBCLxxufp965ZVXmi5ZsmQXy7I+5yY6nhj+DzthOKMSRRHuQ09yuVwFhq1p2LSwrmro0KFNZ8yYsUGSJEiB6Vvsac2QZM1iGObSmDFjEiZNmvRFSXbotttue/evv/4aDPn0oa1KcpLbptrLne7L5MmTK82fP//BU6dOPWqxWHiv18vSGyllv9VsxOCZguooCEvwajcYDGfat2//fZs2bX5OTEy8ltYsyA+8n+O4uTzP91V6dytjsSE6YNOmTZ1L2iluzJgxz0yePHkNCVujxyS9AfF6vZdHjhyJ96HLY0LO5Q5OcRX8WQgoq4LYqVOnZunp6XuCHE5YPB8EkNA1HBoJCQmNN2/e/I2ck/l6zfRCIP8OiWW6eb3ebRq+vtRWNXbs2KZTp07d6PV6y0An6GQmxMsa/sbz/OU33nijU2pqaokSevny5d+9ePHiYCApOrRMIWeJ47idBw4cSAjGG5yQ76+//sqDhh4OQv3pp5+8iYmJQlHaAib3iRMnzmMYpjdsaunYdlrm8jnyF1u3bi1xQicauk6nu8mBTUHul0aPHt1u4sSJu4qCUQQ9G88wzDKj0ViBOHjSfSOEDhaAzp07N8XrU7WTfFgsGNp1p2Rr6t69+2OLFy/eTWvo0CJKwyQZwC4aDIZebrc7s2RbHB5vHzJkyJPTp09fzzBMLEx2Emuv3N1DOsoRI0Z0nDhx4lcl2fK777773cOHDw8mOdZJO/0R+rFjxxKqV69eqEsuSrKPWr87JSWFS0lJmW+xWHrAMYIyJI+E68lYhgWhjxgx4snU1NS1HMeVgXYp07DKm0xwYLwyceLETmPHjv1ca9xKY30Gg6EtwzAL3W73TUdo9Jk/WJcSEhIwU5yGQkZC1xDMdu3aNdy8efP3oijyMPmJ9kYIiixaoig6rFZris1mm17YcyoNm13iVfXp0+elxYsXQ3yulTSG1tIpbe6vKVOmdBw1alSJmuhiYmLezcnJGcxxnI4mJtp0rNfrIQHLlz///HNCvXr1LpY4yCXcgHnz5vFvvPHGwry8vK7QFFpDl/0xfGfpgKHJZNqxYcOGEo9DnzRpUpOxY8euY1m2MrSZyFrpyMcwTN7VdMd9lixZsqqEYS7x10uSpOd5fsTVq5XHCIJg9rcJIhYZgDQpKemRpUuX/lTiDY+QBiChayjI7t2711i+fPkvoihalOfAZBDLixacr34/e/bsVr17976ltbdffvklqn79+tN0Ol0fs9nMwb3McNkL/CQOfYAlEIBerz/85ptvtkpNTT2modiCrqp27dqTjx07Nhx4SWlFoMyJQOgHDh8+/FytWrX+CfolEfbA9OnTyw8dOjTdYDA8AbIE+fr7yF7X2zZv3tylZcuWJboRGjNmTO1p06Zt8nq9d4NcCTmRjTrxi2FZ1ut0Oj/ct2/f6EaNGvnvWITJM7/ufPjhh+Vef/31LEEQHgZHogLmB1Rhb9eu3X3r168v0fkcSaJBQtdQmgkJCbHp6ek/6nS6WmB2zy/Tl5zMQXj00UeTwKQXTE5sDZtb4lVt3LjRkpKS0u7QoUPvMAxTxeVyXT+TJndCUzt8KS4ubvPMmTMTevToUaI5M6tXr/6fM2fOvA+WGCWIFKGDtnnh4Ycfbr1nz57v1TqvlbhQQtAA0Nr69evXdu7cueAUVxE2aCBXcpsYcSqU08tKoiiu37Zt2yvx8fF5IWiO6irff/9947hx49IuX77cBhwgSZw4TegyYUkmk+nsXXfd9caWLVs2Va1a9ZYk9X379vH9+vVL/PHHHxfpdDoDyFN5hk6slOCnqdPpjvfq1evB+fPnq04hrFp4t2hBJHQNBZ+QkMBu3759UXZ2NqR2NBDTHGgd5IpCsqsHsuc47hePxzO7S5cuy1esWBFUNiYNm10iVQ0ePNg8e/bsfi6X63WTyVTN6XRCLK5vkYfMVYAZLPTkpi+TyeS5/fbbhx85cmRmiTSYemnFihWfvnDhQrooirH+CJ06JxQ4jlt3VWsbtnv37hMl3e6Sev+zzz5b44svvlgtCEIjURR9Vg0qN/wNzdLr9ZCkaPq2bdtGh8NGt1atWm8cP358KpnPZEzSkQ1wlbHdbhf1ev2JRx999L0OHTp8PHTo0BLdjBS3rD/66KOooUOHdtPpdK/m5eXV9/d+xWbXwzDMilWrVvUuqsNlcfc1nN+HhK6xdAwGQ8LVeOoPPB7P9aQK9C1pZHcPjnKCIIBZ1uF2u9eMHj3640ceeeQPMEPp9XqfR3G4eDlrBdGVK1fAamHt1q1bXZ7n27lcru56vb4saD/kkhmy2MOGh2yIZKfCc127dn1h2bJl32nVnsLWk5mZ2SAhIWGD2+2uqQy5ojQQ3yaOZVm7JEmZ8fHxb2RlZf1d2HeW1ueGDRsWPW3atJEMwwzneV5P0ozSR1IknBPwMplM3ooVK7588uTJ9HDoc4MGDR47dOgQhFRWIptL2vmRtBE2oqIoSoIg5ERHR3+UmJi47YUXXjgM89lkMolutxvC/yJmvYW5DH1fvny5tU6dOrVnz579H6fT2YFhGIvRaPSlqPbn+AjPyHME8vS/KgjCunCQc6S0IWIGWLgI5M0337zj3XffnW00Gp8DEzK0i3aKI2dKJB+7TAgunU53CkxQOp3uik6nE3Q6nU9jJZ7Uiv5dlxvtNUqVkQrAQ1OZQ5yy4l1+/nStBIR5SZIEmbHqMAwDjkYmmPj+Lp2h/xYbGyvl5eV9t2PHjsTHH3/8VEnL+qoV5vYXXnhhtdfrfQxS8SqtCWTTBol/YFHzer2O2rVrL3/00UfXSZJ0wGaz5VapUsVz+fJlXZkyZST4qXWfSL1Wq1V/8eJFfbly5cS8vDyxMO+z2Ww3tS8qKqqgMcZyHAcOjnenpaUlMgzTSRTFKvllLSOpbuWN25GePXs+v3Dhwt+1xqQw9b377rvVx44du8bhcDzG87zvGI30Q9kfyrkPYvXPsyx7hGVZsLyR7IlkThemKX6fyWf+51f/TXJU9MEnU3oCU4lpaHmTeiAPA1ipajAMc7skSUZ/LyZtJOugfOXylj59+vT/8MMPj2sGBlbEaL6QIKYM07Fjx0c3bNiwzWg0xoJGAv/83Fp1negLwizICVui8AdIIlFgbnJCgsQhDjoCmMEib7fb3QaDYey2bdtmhIMZFs4KGzVqNNZgMIzmOE5PHLzomHQSqkiOEOAM3WQyuR0OxxW9Xn+J4zgH3H0uiiLMwYLIsbAyhTp9KUUBSsjXIxML/Az1vAcyh4U+hud5E0m+4298EO1c1n7zoqOjJ+fm5oKJOyw+O3fu5Fq0aDFYp9NNghw7ZB7DJkSphSqtNbRlrrCdKc75HyhNbGH6QMJQibYO84LjOFvjxo2f3LFjR6FSyxamHbfKM6Ge2LcKjjf08+WXXy6zcuXKTQzDNIbFExZ1mCzEjAyLAcmWRU/YUEyokhaAcpFTtode9OhND5xLwt3gEP7F8/zhzp07Jy5evPhgSfeHvL9169bNtm3btvaqD0RFcIAEGROZEhInjn1kcwIbO2JqBlzIeWxR+lTUMROIMIKtnz5yoGUPfS2oLiB0k8l0oFy5cn1OnTq1ryiYaP1s9+7d71u9evVKnufr5+bmQsY7n9mYHBOR9ylN8eF0n73WmARbHzUnwEdiT1pa2nNt27ZVfVtfsO+7VcsjoYdA8nKaywSWZafp9fo7yEIPJAW/w8JGaW4haIH6KrVe0JVvDkToUJ6cm5OrG0kdcXFxoJ3/1a5du+S0tLSN6nsV+pKguU2ZMqX/9u3bxzIM40ugQZwfyV3m9AZF4Q9AwvBuIoXQtzz0b1A4P/nkS/7R5Ae/g8YGxMjzvFC3bt0RH3zwwaxwsMIoUWrXrl27Tz/99COj0VgVNidqrrgNNLdCL4nQvyHQhk+Zb4BhmBOiKL6ZkpKSkZKSovq2vtD3JDLegIQeIjm+/fbb0VOnTu2bnZ2dYrFYrHa73ZffnTjW0Mk08muCP+ebYJsbaFEJNCGDfR+UL4zVgWjqcrw5mOUkh8PhKleu3KK1a9eCx3N2YdoSymc6d+5cfuPGje95vd7OYD6nHflIfwhhEZzJRg7aRcZAKNsYSL6BxkcwbaPfpaxX+R3R5GETd/U4RRAE4WTfvn1bzpkzJyxjkrdv3x7btm3bSW63G1LXGsGRE9quZsMaDIbhUDbY+atmnYLLXxwOh8NoNI4bPnz43JSUFFs49DXS2oCEHkKJAqmPHz9+uNvtfpXkKYcFHRZ70NTVTIQQNi9sqiaaLDlPvZpFj7HZbH+VLVt24dy5c8FjOGy9w7t06XLfihUrVhsMhrvdbrfP6QnkCkROx+AS8qYu6Akb/Iu7IWRjCz9jY2OZ7OzsXW3btp2wfv36sE6dmpmZWalLly7/ycvL68Nx3G3EEpOfBSLQZqq4cQ/F+/Lb0JC/k3nAcVy21+v96P333582cODAWypENxS456sEFufLbsV3TZkypcKsWbMGnDt3rn9cXFxZOIOj0yGW9A4/kIZW2EUp2H7BRod8WJZ1XTXBjl24cOGcxMTEsN7JQ9KUu+66K+HIkSNjo6Ki7lF6hBNNlL7GkvxNaYa+VeYHIXTwjxAE4a+XX345YdmyZXtLQxrkd955xzp16tTk7OzsyaIoGiH9L8iR9hEIduyHo9zV9sGfUkLkC/0CS5sgCBcsFsuHI0aMmDNq1Kjz4djfSGkTaujFIMnU1NTYSZMmvWSz2QaYzea6brcbks7km0muGJpULK9QY4GgHYc4jnMJgvCzTqfbnJGRMaO0OM3s3LnTNHDgwGYHDx6cybLsPUDyxOGNJm3a3F4sAijBlxRECPKCL+p0uqNGo3GOzWb7CKZDCTY3qFenpaXFJiYmDjYYDM+Kovgg5EOir9FVc5wW1AtLqLCa+euvadB/2Kzp9Xq32+0+yvP8h6NHj16VkpKCmnmIZYmEHmKASfUQ6nT+/Pnb+vbt+9yZM2cGiKJY92ooDAfETjsRKWNcA2nIxKGMaAkk/zmdWtOfQxJ5J/G6JsQKZelLZWjNsqhQ+bMGQP1Wq9V79dKOPywWS9pLL700980337xQv359d1HfV5zPy5r6fSdPnhzKcVxHm81mBO932hxLNBdioVEumP7wCSR/UgeRO3kf7ZNA3kf+BmXhOeXFGaHAi9bWQNawqXG73WCB+bZTp06DJ0yYcLhu3bquULw7lHUePXrU+Pbbb1dYvnx5P6fTCbH2d8BdBA6Hw7emkvDLQBawQG0k85GWF/xOfE3g5jrAlI6P9+ddD8+Q7Hwk90OgyINAbYPvoX0kIoXk1jCbzR6Hw3G0Vq1aHzVs5mKLPwAAIABJREFU2HDrqFGjTjVq1Agyw+EnxAggoYcYYGX1sPBXqVKl+YULF9pLktT+6jWD1UkZOfHKDeE9gRYElmUlOcbTtzGgCR4y0YFJkNYeyLvoTQQxAZMJCuVhQcrLC5y9MlD7FM5QkL/Z1wT5p1On0130er076tWrN3fYsGEHSjpPe1GGA8h2/PjxVSdMmPCWyWR6URCEaCLT/GKx/eFH/y0QvvC9vzsD6EVdqTHCM+Rsk3ghKzcOak2ugTYcMoH7Fn3IpKbT6S4bjcbPWrZsOW3t2rUHSnuO+3nz5lk++OCDhn/++ecAm832mJzGGOL+BaPRyLrd7gLX2ED4UXPFb9gfkCgJh4yOjmZyc69FghG/FLLRg7+RDRWsC/KnyIlu5KRKUCG8wsPz/N+SJG2oUKFCxsqVK3eHY8RCUeZ4uD+LhF4CEoJF/vfffzdc9fasbLfbq4uiWFuSpMqiKMbAXJS1YlWyAec6cCy6cuUKxPEykHbx8uXL0rlz55iLFy9aIR2jIPw/e98BH0XR/r99by+FFAhJaKGqhPZKe0WkiwVEROGvoALSFBEFBRHx5VApAmLBigoqWMBGL75gIlJUioUiEEKVklCSXHJl+5/n3OE37HshCSTkcpn9fPJJcjc7+8wzs/Odp+vVIYFJsM0DNm5r0z3dsGHDxYmJiXJmZiaVlJRkRkdHBw4DhVwB+vANA8aFt0WbtSURwvOh+IoCmzpFUecYhjmkKMrhQYMGnX344YeLPj2Uw1xdySMhr/U333zT6MiRIx1PnjzZ3e/3Qyat5AthjFCFj4WTF5KWr1YDYqk3QWIL7KjwP5ISEe04uNvCJeGeQtdFScYe5EAAC8cQBMFnGEa2aZp/Nm3adFdCQsKqRo0a7XvzzTfzKzqY4wfxU6dOSS6Xq+rRo0frcBzXEFLFejyeKIZh4H2+mDgIvOMtcC1RMiHEK/SOASjDYSErKyuQBfCPP/6I0HV9AM/zMSg+Hs07kuhRRIEsyz+0aNFim8/n4xMTEwN02PsvztzDPZqmqREREQWGYWQ5HI7Dsiwfe+211040btxYDZf5LQ4vQqVNsUAjVIgldJSMAzfeeGODXbt2LTMM44bCAB1lNOM4bt2kSZN6u1yucq1kVrIRhn7rlStXxs6bN69WWlpaW8MwmsBm7/V6o2A+eJ43QKpHmzR2OLr4XlqAf8nmj2+UsLFDyJwkSYamaayqqk2joqKiCgoKLmprQILHQd1KSZvD8/xfONhYGpoS7Ql44SEMGFSGYfJN0zzFcdyOkSNH/lm/fv0/R4wYUSmrkF2LVdqpU6fIzZs3b9Y0rZndfIakc+tzJSIi4vlx48bNIXHg12Jmru0zSvTyXlvSyNOulgONGzdO3b9//0rTNFMu51EtSRIUiZlXUFDw6NU+k9wfnAMWaLMHDx5kGzRoEHjvjhw5QqWkgPB+9dfYsWPp9PT0yAMHDqzyeDyt8R5xZzzrAGeIorgqLS3tsaSkpHOlQQOMBV0pKSlwAEE/GpHUrn5+i9ODKIrrVVXtirQ+dlu6ZdcH50NIY/sy1IwoTr+kTcXhAAH0ijNXJaa0WbNmTfbs2bPGNM2a9rAp1JlV+tGsX7/+W5mZmaNL/BByQ8hwAEKqxo8f/wPHcW3wqmZAIJL+LTuqwfP88rS0tKFt27Y9FzIDIIRcFQeSkpLWnD59+nZkP4dDvD2fPMuyGs/z0z799NMXSdnSq2J3SN5MAD0kp6V0iEpNTW28b9++taZpgp3+Yqe4oxW89IIggD3uE9M0HyHSVOnwvjx6AUAfN27cD4IgtAHvZ7iCFQiBeG+WZZdv3ryZAHp5TFQZPLNv377sV199tYGiqI6F1Uew1gM4rk1ds2bNVOKwVgYTUc5dEkAv5wkoy8d/+OGHdR599NGlhmE0t6p6BQV1q5bzpunTp98+bty4sHFOK0vehmLfAOiTJ0/+wev1tsHzyOPSufU5qNyXb9y4kQB6KE7kFdA0YcKE2FdffXWTqqqNUbQLHhYJawCAXlVVmWGY53Rdf6MiJPK5AlZU6lsIoIfx9O/cubNay5YtPxVF8Ta/339xru1SGzhJybJ86MUXX+z2wgsvkPrEFXRNAKA/99xzaZqmtcY3czwEzfqcAHoFnePCyL755ptb/fLLL2s0TauKe7dDe1soq+fGG28ctXPnzo/DjAVkONegLjJhcjlyYMuWLVK3bt0meb3ecQzD8PBiw4aOksnA/8hhiuf5nHHjxg2YNm3amnIkmTz6KjhQEkCXJGlFenr6EGJDvwqGh8it8J7feuutkz0ezxgoYIfIQoc6FMkCn3Mcd3bKlCkPPv/88+tChHxCRilygEjopcjMUOsKPKtFUex7IXnNR4qiRAJ9wdRxIKH7/X5FEIQX161b9wqxrYXaTBaPHgLoxeNTuLWaMWNG6oQJEz5jWbYZZCcEh0iUFwAd2JFWjqbp05MmTbr9pZde+iPc+EDGQ1EE0MN8FTz44IPXLVq0aK0oiinBqn8hlRwkJtF1fdu999477JtvvvkzzNkSlsMjgB6W03rZQb3//vv8M888My0/P38Uz/MOlFQGzwYIHYAaHsLWCgoKdj799NO3vfrqq2crH7fCf8QE0MN8jsH7denSpWt1Xe8KGcpQDWc8sxeyuQmCYCiKssDlco12uVwkCUgFWxsE0CvYhJUCuS+++GLTadOmfc9xXCIkE7LU6oE8/VYESyA1sBWuaMbGxn6QlZX1KIlmKQXmh2AXBNBDcFLKgKQ5FEWN5nkeMoldtJvjz0HFHnRdzxw7duyAWbNm/Upe+jKYiTLskgB6GTI3BLtet25dxIMPPjjmzJkzzzMM40D12RGpmGc7FEAy/X7/2bp16z5+8ODBr0JwOISkUuAAAfRSYGKod1GrVq3bcnJyFhUUFFSFsCW4UDpQvLobOM9AbmaGYVZNmzZt/Pjx4zNCfWyEvv/jAAH0yrMa0tLSuAEDBozIysqayPN8EkSx4NX08Pfa+lxjGGZBs2bNxv/++++5lYdTlWukBNArwXwvW7as+j333DPHNM1+UCwCVehCDnIoHzewwopVVQVB+NLlcr08ceLEA5WARWExRAvQf9A0rU1RYWvEy73iTjmA+bJlyzq8/vrrH3AcVxdy+UPVNQBxe0IhVNKUpumTvXr1un/ZsmU/VdyRE8qL4gAB9KI4FAbfg7d7586dU9PT05eJolgP7GvIxoZv/DBUrJSqbJrmD3PmzBk5ZsyY/0vUHQb8CNchAKBPmDDhB9M02wTLDIjCFk3TNAigV8xVAGr2oUOH9jxx4sRElmVToXofqm8OWjdUDhc+Q2Vz4bOIiIgvZ86c+fCIESNIXfKKOfXFopoAerHYFB6NqlWrNuHMmTP/oShKsieXsQO7VfJU13V9xQsvvDDtxRdf3E5s6qG9Dgigh/b8XC11aWlpjj59+gzNycmZKElSIpTJxeue2wswWfHnpiRJebGxsSNPnjz5xdXSQO4PbQ4QQA/t+SlV6iZOnNjk1Vdf/ZyiqKYQwmZPD4pvCKiGMtQvF0Xx5yZNmkyrWrXqjhUrVpBwl1KdldLrjAB66fEy1Hrq1q1b0/Xr199FUdTjgiAkI7MZLonjiaKQql2SJNXn833hcrmedblcp0NtXISe0uUAAfTS5WdI9wYhbJs2bbr/9OnT80zTdOLEBlO9Y3WVTUEQdEVRMuPi4l4YPnz4+hkzZuSE9GArIXEE0MNr0sFWvnz58hs+/vjjHnl5eWMMw4h3OBwMOMChwziuaUNJZNC7HBUVpRcUFKx+7733HhoxYkReeHGHjCYYBwigV7J1MWDAgOgvv/zyQ4Zh+qiqyuJ5vu0AD//DJgGONgDuPM+bsiz/zfP8moYNG85v06bNHwsWLJCJKj40FhEB9NCYh6ulYsmSJeybb74ZvWnTppsEQZiqaVpDiqIiwC/Cyup4SegpntoV//uCNH+mevXqQ7OyspZfLU3k/orBAQLoFWOeSpXKNm3aNNq5c+d7hmF0Rqd55EQVDOCRpA7gDtmm8vLyTIqi3BzH7dc0bWv9+vV/nDRp0l85OTlHx44d6ytVYklnxeYAAfRisyqkGpqmycybNy9u9erVjdauXdtKluVOgiC00HU90TAMCYWg4SYyGAACdzQYAHNQwcO7LAhCXkpKyrQlS5a83bx5c1JBMaRmvOyIIYBedrwN2Z5hA7nzzjt7rFmz5nWO4+pAtBpsGrAR4Bnk8I0ChcOgzzAbnenz+UD9flIUxS0NGzZcW6NGjV1Dhgw5c9NNNyk1a9bUKYqCYuwGKddYtkuCAHrZ8vdqeodIE8jACj9HjhxhJUlihw0bJjEM0ygzM/OmAwcOtFUUpRXDMEkcx4kQigbPs8JIL6lrjw7Y6Hv4DUCOLqfT6ZUk6dONGzeOS01N/Sd9HLkqBQcIoFeKaS50kM05jvsPTdP3QMQaADq+MaAQNiS9S5JE+Xy+QGgbXGhjAXC3ckibEBJFUZSH47hTqqqe5DjuJKj+TNPMFkXx5PDhw7MaNGhw2ul05iqKknPq1Cnf5MmTVaK2v/qFSAD96nl4tT1cyN3AVatWzWGapigIQiJFUVWefPLJRJZlq/n9/uo0TSdDmlZZlmvRNF3dNM0YwzCckJYZJHAUWgh0oLzsCLjxdxMdqHHtmXUgd0MxpkWLFk3r378/cWC92gmtYPcTQK9gE1ba5LZq1arN9u3bP6Io6npRFDnwfrer3XEHHCTJw0YCP/gmE4w261AAKnqdpmmFpmkvTdP5NE27aZrO1nX9b13XT7dr1+5ETExMls/nO8Hz/PnU1NRzjz76qOJwONSaNWtC7CzcD/2QqxAOuFwu55QpU9IoimqDa1qC1UMnceglX0ag2dqxYwebnJzMp6WliR988IHIsmyC0+mEELIaOTk5CZmZmQn5+fl1DMOoFhkZmeDz+aLA/m2aJoA8CxVMLWn9EvAOphkDClG0CcSYo8teMRE5xjmdzvNer/fj9evXT+vWrdu5ko+Q3FHROUAAvaLP4FXS73K5mF9//bX12rVrRzIM09swjGgAcFCxIykAbHNwIbU77niDwAInIxiY4JsR2qjgNzwLDhHQp6qqANo+URTdiqKcdDgcoMo/5fF4jkZHR58GieP666/P03U9W9O0M5GRkbkjR46EAwJoBSr9RQC9dJaAy+VyRERERPM8H+v1emN4nk+YMWNG3Llz5xLi4uIAsGvQNF2H47goVVVB6o5UFAVyqTMgJSOpGUvSFCAMfy8KA/DLjQBXtVtpmgN9XtCygTnrdHJy8lt33XXX23PnzgUpnVyVkAME0CvhpNuHDJLHunXrYoYNGzbo+PHjIymKqsvzPAMqP3sCGgTGsJHAd3hGsivZpKA/2KjsFyo0AVI5z/NQBU4VRVGBXPMsy/oA+E3TPF+7du09sbGxP5umuXXMmDEnMjIy8l0u1/+JM5VofksA6JBsZHl6evqQtm3bVnpJLiMjQ5w1a1b1Xbt21dV1ve3u3btv9vv9dViWjYKSpD6fD2zdAsuygq7rrCAINCR1QYCN8jegdQyHVJSJEX8/rnQpogM09As/fr8/0BU4xUGeCMMwvmnQoMGCzz77bAtxgLtSLofHfQTQw2MeS2UUK1ascD788MMdvV7v4zRN36TreoyqQq0WJgDcAOBIoi7uAwsLi8MldmiD+keOeXilKPCsR6Fz8BtogO/hb+vAoTAMc5TjuL2GYex48cUXf4OqcdnZ2Yfmzp0rF5fWit6OAHrxZhC0UhRFxcyePbsJhISxLNvE6/W2FwShjizLcQzDsJhfSKCQEdJWwRNQZULkc2JlVQxIy6UB4Pgo7Dn54RkA5IqiQLGVDE3TVr3yyitvPPvss38Xb/SkVThzgAB6OM/uFYwN7HvPPfdczE8//dTq8OHDQ0+dOnWHKIqR4HWL7HhIMi+ORI6r5FF7u5reXpsd2ebhc5SPGstDfjFfNQwPbaLWhgsJcDRFUUAN7xYEYWdiYuL6AQMGfDN16tSscFfNE0C//IL/448/It55553kjz/+eJhpmnfoul5dFMUIr9crchzHoCIncFBEaw8AGitwQoFjqNfrvahWD6ZZwh3bggF8sHfC3o+9DYC4JfWruq6fNE3z23vuuee9OXPmHKtbt+4/Iju5Kj0HCKBX+iVQOANWr15d7YEHHhjq8XgGaJrWGHx0kKoP1H6W3ftiB8UBeFwyx5+MJCLYtJBUgjQDSFpHMba4LRH6QO1BcodYefDEhzawCVIU5dU0bX316tU/f+edd1bcdddd3nCdcgLowWcWDqk333xzvQtlQ5/y+/3teZ5vwvM8V1BwaUQXbl7C1dxwkEVZ2JCEjlKuwtrD16w94+LlgBodSAtrgzRX0dHRlNvtBhoUXdcXJyYmLnryySe3Pvvss/nhupbJuK6MAwTQr4xvleau7du38xs2bKg+efLkboqiNGEYpgtFUfVN04wEXTzufYuYUlJgL6y93WYI/eNgjkvvsOECLYUk4TAEQfDEx8fvYBjm+/vvv//72bNn/xZuEjsB9Etfy27dulXJyMjooev67dnZ2W0URanvdDo5kLBxYAaTDnyGyggjmzgCdXxtIfW6PboDL5KCHOPgGUVJ6ME2Ekw613iePybL8pHmzZt/b5rmlgEDBvw+fvz4AhLxUWm24BINlAB6idhVeRuD3bFx48b0ypUr63/xxRe3sCx7r9/vh7rbsVbCjMsy53IgH6zyG5JOUKd4G7sUhH+H/sYlKtiYYcOFTVsURfCIP9C7d+8J48aN+2+rVq3CRmIvKaBv2LDhkXbt2p0Px1U9YsSIhqtXrx6ZlZU1iKbpKqDIQRoeAFk86xqsJ3Q4RACMDo54O5SHAfiFwN4eQobaFyWpF6apssDcD/XLKYr6uXnz5nOjo6MPpqenk5jycFyopTwmAuilzNDK0B2oMFeuXCl9/PHHDTIyMm7btWvXzQzDQBKNeMMwYgVBkGRZFv8RqBka2dxhQ8VD3oLZ4u0bJPDTvjniYI2+R+pL5GGMqzNRzDz6jGVZ8Jw/DznpW7ZsOWv9+vV7aJr+v1RbFXQSAdBfeumlNHs9dHw4Fi8DXu7hCOjfffddzDvvvNNm/fr1EziOa88wDI8cKVGiFlg/cMAEjQ6u5bGvTbsq3Z53wX4oQIfWYJEh+DqOiIigPB6PwbIsrDmfruv5DMPk0jR91jTNA61bt/6hY8eOG1955ZUzNE2T+uUV9H0sD7IJoJcH18PomQDu8+fPj4yJiamiqmqC3++PfeaZZ6oXFBRAopomHo/nBk3TakGUDc/zLGySeLgbAnnYLMEuj+enRhsjXpACSVlISkKbKGzW+OYM3+PAH0yq5zhOl2V5Z4cOHd7fuHEjJNep0FdlB/TXX3+99oQJE1x+v7+b0+msIcsyg3ueB0vSAhOODnwA8AC24IOBpHgExMicA20ByOF7+MyeXx3XKCFp3/JMB82QrOu6W1XVTFEUd+u6fqh69eqHZs+efYJl2VyO4846HI68O++8s9JEZlToFy4EiSeAHoKTEk4kDRo0yKHreoJpmnX8fn+DtLS0xNzc3Fq6roMkH2UYRpSu61DK1QmSPfzNcRyv67qkqirHcRxk12JgM0YSFjjQoTA2ZMtE4I+kLLvjXDCeIlslz/P+Dh06jHvooYe+GDhwYIWNy66sgA7VyTZt2tT2gw8+GOPz+e4DUIb1gUvkuH8FAnEr/Csgrdtt4niYGvyNvmcYxoQESOA+ous6SM8+WD80Tft5nvepqupXVdXL87xXUZRsiqJy+vTpc8Q0zTOSJB1SVfVYbGzsuXnz5hHJO5w2uhAZCwH0EJmIykIGSPQ7duzgTp06xdM0DeFCgbzXAOAMwzgGDRok0TQNYB5rmmY8x3G1PB7P9YqiNJQkqWZBQQGAPw9hRqoKKeDpi8lvkLRuz2R3ucx10BYy1YF0xHHcDzNnzpw4evTozIo4H5UR0GE91a1bt8PJkydBw1JbURQeHe7QgQ3+x0Mu7eCN1xFHJhsAbk3TTEj+Joqi7PP5ch0Ox8GYmJhDfr//MMdxGQzD+Nu3b3/+oYce8jidTjk/P18WBEHmOA4qDoKULRcUFGj9+vWr8Oacivg+VEaaCaBXxlmvgGMeOXIkxMLXNU2z7qpVq248efJkG57nb6AoKkFVVcnalGkAaKQODeaYFCy+F3kl67puqKq6+Lnnnnty+vTpZyoamyojoEdHR0Pe+jn5+fk3w9xGRUVREI6GVObwG6m+cfU4UpujamYw15IkQeVAsG3nGYZx+EIq5N8Zhvmjbdu2u26++eZDffv2PdWqVSsiWVe0F6MS0UsAvRJNdrgMFULpDMOIHzlyZNLJkydr0zTdVFGUNjk5ORBOV0PX9WhwxoON3J6pzv6/nSc8z+cKgjBvxowZb4waNepURQoPqkyADmvg/vvv75ydnf2yz+droWkaD3OJUhJfToUOhz5YByCB67oO6vMcQRAyEhISDuq6/hvHcX++/PLLxxo2bJh97NgxD5Gww2XnCP9xEEAP/zmuFCOEsDpZlmOXL1/ead++fU8yDNOMZdkquO0UxRfbQ+jw+GMrzhj2+eUTJ058curUqccrCgMrE6C7XK4bp0yZ8jlFUdeh7G0wj3ABmNud1ZBaHezh8ON2uyE3ATinpT322GNfOp3OHS6XixQ1qSiLndAZlAME0MnCCCsOQInK1NRUkNJ7ZGZmjjJNMwlqUkMBGgTo+IDtznOoJrUoiv6EhIRnDx8+/HZFCWmrDIAONvMpU6ZUmz179ksURQ0uKCgI2Mwtifvi1NqzDQKgG4YB4Yq63+8/JUnStvvvv//VESNG7P73v/9NgDysdoHKOxgC6JV37sN+5L169UqWJKn54sWLn6RpuiNUzgLvZ/tmjxgBnyOVvJVu9u9///vfo9PT01dWhHjgwgAd9yVAceiiKC5PS0urcIllnn322dqzZ89+mWGY+8B3Ag85QwlikLodSeXIr0LX9aMMw6yYMGHCJzzP73a5XCQHetjvApVrgATQK9d8V7rRgkQ3a9asetOmTRuZm5s7kOd5qKZFg2c7XIUlAYHvwH4eGRm5p02bNgM2bNjwZ6gzL9wBHbQsjRs3Hr1///4ZhmGIuDc7bkZBYWZgbrHMKbJhGHtatWo1YdiwYZtHjBgRNtkBQ31NEvquLQcIoF9bfpOnlRMHZs2aFbFx48Y+K1eunGCaZmOQ3pCa9nIlLyHfe506dd6fOXPmE6HuHGUBerppmq3xMYWLhN6pU6cWmzdv/pxhGEhWdImtHBUKwp3iIiMjISQxj2GYT3v27Pnh119/vTvc8veX0+tEHhuiHCCAHqITQ8gqfQ6Afb1Pnz7tly5d+pLD4bgZJD7IToer3OFvVP4SgBBs6jRNH3M6nQ+eP39+Uyh7vYczoN91111V161b97aiKH0oiuJQ+lY8KQx+cLGkdF+9evVef+WVV2b27t07L5TnrvRXO+mxMnKAAHplnPVKPGYA9Z49e3ZbtWrVOxzH1YUa2Mh2Dr9BsrUnopEkSaMoau2LL7446plnnjkaquwLZ0Bv167d3Vu3bv2UZdloOGThBzGkeoeqaah0rq7rXpZlV0yZMuXpSZMmnQjVOSN0EQ6UJgcIoJcmN0lfFYIDIJn36dOn+7Jly6aapvkvVOcdSXg4oCOnK8MwNMMw3n///ffHjBgxIiSTi4QroM+ZM0d6+umnP+M4rjf4P4DTG6jcQc2OIhfgf5Q1EOqGX8hTMHf+/PlT+/fvD0VPzAqxMAmRhANXyQEC6FfJQHJ7xeRARkaG+Pjjj3dPT09/T9O0ZGRzxhPPwN+g2gXPeIh1Ngzjt+bNm9//66+/HgjFUZcQ0JelpaUNCfXyqXD4atOmTfft27fPE0WxFkjm9mp7MBegYkegrmna7927d39o3bp1UEWPgHkoLlZCU5lwgAB6mbCVdFpROBATE/OCLMuT/H6/gGznyI6OxgAAAhcU3RBFcazf758XikARjoDepUuXGps2bfoaMgFCkR4czFF1Pcx2bpqmubtu3bqPHz58+KeKsgYJnYQDpcUBAuilxUnST4XkQHx8fOvz58/PZxgmFYzpSMoDcMdjnK3MY8aF/PGLX3755RHPPvtsfqgNGAB9ypQpaRRFQX7zAHn2fPZYHHqFkNCrVavWr6Cg4EOfzxcF47GXyEX2c6s6Ghy4nps1a9b7o0ePJiVIQ22BEnrKnAME0MucxeQBocwBKL15AQQ7Hjp0aImiKPHIKQ6lDsUBEZyu/H5/bqNGjYbu27fvm1AbV7gB+pAhQ+KWLFmyyO/334FKoQYruGPVKIcTzOpBgwb1e//9932hqEEJtfVC6Ak/DhBAD785JSMqIQdcLpcwZcqUVRRFdUM2czwlLJ5alOM4k2XZjxYuXPh4v379lBI+qkybhxug16hRo0VWVtZiXdcbIXOI3WERDmBW8hhflSpVxuXk5LxdpkwmnRMOhDAHCKCH8OQQ0q4dByRJGsMwzFSPxyPBUwHYwZsaOcnh1btYlt32ySef9HnwwQf/vnYUFv2kcAP03r17916xYsVHpmnGodHjCXMwkwhI5z8PGDBg6Geffba3aE6RFoQD4ckBAujhOa9kVCXkwEsvvdTwhRdemC+KYnsUFmXvAuy0cOm6/vfMmTP7jx07NqQcr8IJ0E3T5AVBmG6a5pOGYXBIMsd9A1DeAJqm5Z49ez6yfPnyJeAGUcKpJ80JB8KGAwTQw2YqyUCuhgNgS58wYcKoQ4cOzYZMZNAXsqPDbwB5TO1bQFHUCIqioHxnyFxWvHZ6ODjFffjhh3Fjxoz51uPxdDAM45J9Ci+iA8w3DOPwY4891vLdd9/NCZnJIIQQDpQDBwiglwPTySNDkwPjx49Pnj179vcOh6OxLMuBBCZwQQITiEVHdnWn06l7vd4PTNN8PJRyg4cyoMOB6aabbhLcbjebnZ0eUHXzAAAgAElEQVTt79Spk345x7X77ruv+9dff/0lRVGxwVYLzIUF5pokSUt8Pt+AYO2gOM/WrVsdERERTLNmzcBZzgjN1UeoIhy4eg4QQL96HpIewoQDkBaWZdl5FEUNpGmaxe3muLSuaZopSdLWd955p+vgwYNDpgRnqAL6m2++WfPpp5++XZKkFrquOzRN292lS5efV69eva2wWvPdu3cfs3Hjxtl+v59BEjlezx59xrIsHAxciqK8bF+GTZo0qb579+7eoiimyrIs8jy/pWvXrr+tWbNmF/GCD5OXlgzjEg4QQCcLolJwIC0tDdTo8KN17tw5qJ0VpLmGDRsOOXz48OsMw0RAqBReXhU5yFm226z+/fvf8vnnn2dcjoF79uwR8vLyWFmW1cKeW1oTAIA+btw4qLbWBpzH8Kx36BnXsh46ZOPr0aNHv7Nnzw53u93/YlnWAaCsaZoSERFxKj4+ftHIkSM/HT9+fCbOA5iru+66612fzzcUOcHZ8+tDe2sezrMsO1jX9eWoj+3btzt79+49JC8vb4CmaU1UVQ04P7As61NV9WTt2rXfGzt27PzRo0e7S4v3pB/CgVDgAAH0UJgFQkOZcQBUvR9++GGr77//vg3P8w0YhjnavHnzbb/88svWYA5Ut99+e9f169d/rmlaApTfLCgAc/k/F4qBBmmdYRjl3nvvve+LL75YEYx40zS5MWPGtP78889vvaCerxEbG5vRv3//LTNmzPi5rNS+oQboPXr0aJmWlvZfv98fC8BsTwojCIKsKMrCjIyMUQ0bNryYCKZXr15RK1as+EYQhFvB1AFXYYDO8/zufv369Vu4cOFf0G779u187969e547d+4Dn88Xj+YGmUsgeoHjuDM+n28sRVGLymzhkY4JB8qBAwTQy4Hp5JHXhgPjx4+v+cEHH/Ryu91PsyxbA0BWVVXN6XRmR0VFvTp48OBV06dPz8TVr3Pnzm31xBNPLKEoqq4dDBCgW2VV9ZYtWz72888/f4CPBqT8C4VEGn700UdDaZr+f263O5FhmIBmgOf5U126dHn1P//5z+dt27Y9V9pcCDVA79q169j09PRXkaocT61rjR1MF+fatGnjio2N/eq7777Lhs/ffPPNaqNHj4aDUtvCtAzogGUYxtrPP/98UP/+/bNWrFjhHDZsWN+srKwJgiBcB34Q0A4dzJDZJCoqyvT5fFvuueeeW7/66itfac8D6Y9woLw4QAC9vDhPnlumHJgxY0aV559/HsC2O03TVSClK1Kfw2+KojwMw0ARj0dXrVq1GxEzf/78eiNHjlxqmmZTWZYDUjlId2BPR45YCKAuZI5zrVq1aiquSn/55ZdruVyu+aZp3qLrekDVi+6zDgTnDMP4jKKoJ0ubAaEE6EuWLBH69ev3EcdxD+I1yxEQI2ndUqmfFQRh3Zw5c54cNWrUuQ8//LDO448/vlTXdbC5/4+Ejvqwiue8/t133004fvy48dJLLw06efLkDJ7nY3VdD6TxtR/K0P80TSsPPvjg9QsXLjxc2vNA+iMcKC8OEEAvL86T55YpB+64444ua9asWcNxXKDoCsSQe71eKjo6mgKgtlS4hmmaS8aOHfvyK6+8sgcIWrBgQeLgwYPBHtsaebfjBwG8xKphGO+mpaWN7dy5sx8k84kTJ94wffp0V1RU1L1QJQwqg0F7ACWU0Qz+liQpv3379vf997///b40mRBigB73wAMPQFjfbfYa8/iYYV6AJ4IgGJqmvfTMM8+8W79+/ZihQ4d+e2FuGgdL9YoAHX6bpjlu/Pjx78+dO3eYaZpPaZpWCz+84Rn/oGIezL11iDDuv//+tl9++eX20pwD0hfhQHlygAB6eXKfPLvMOFCjRo0xZ86cmQM2WBRHjkvamE3XZ5rmn3379n3wq6++Ojh//vxqw4cP/9YwjPbIIStYXneHwwFA9PFnn302sm/fvv6ZM2cmTZgw4WPTNDtcSIgioucicEEHCjgkAEjJsvx6WlrauNJ0lAslQB8+fDi/bdu2D/bu3TsQeID4DROOpG6YD7BpA8jCJQhCLsuyazt16rR03bp1E3mebwZ8xO3nmIQdwPPIyMhHvF4vz7Lsq4qiRIKrg5Xb/ZJQQ6QpATqsg5r//vvvb/Tll18eL7NFSDomHLjGHCCAfo0ZTh53bThQq1atacePH38OSdkAyrCZow3dAtWA5A7e7IZhLBw/fvyEDRs2KDt27FguiuJN0AakbAToOOUARCzLLvn3v/89onnz5tXfeOONyYIg3A9JUADArOpfl3jJw/2IDoqilqxZs+aR2267zVNaHAklQLfGOo5l2ZnADzwEEI0XSc/wG4sm0KpWrXooNzc3SVGUqCIk9ED4oNfrTaYoKsUypVx8Fh6hgMquQn+SJJmKomx74IEHuixcuLDU+F9a80j6IRy4Ug4QQL9SzpH7QpoDd95557jVq1e/AhIbDsi4ChYNwJK281RVXXrLLbcs2Lp16yuaprVFgICDCpL2LWetL1q2bPnazp07p7EsezNN0xKyu6Pyq0jVjqR9uA/6FUVx3vz5858ozQIvoQbot9xyy41btmz5lqbpWuBKgEvaSA2Pz4flbAgHLBPmxO/3F7o/YSGE4GzIqKrK2HmMbOgIzOFwBzSoqno4Ojp6Ul5e3hckHj2kX2NCXAk5QAC9hAwjzSsGB7p3737rDz/8sBI0ubhzFAAy7qSFKqlZiUqgyMdR0zQjDcOoCu3wYiC4ZAn9cBy3yTRNyDzWAfWJ7OU4l5BUDm2sQ4JnwIABAxctWlSqJVhDDdDBr6BLly5dtmzZMluW5RaWdBzwZUBAHkwCD+bZjvMTfR/QuZvmxXBCvC8sk1zgVuA7VMqTZRni4AYvWbJkSb9+/f7xuCMX4UCYcIAAephMJBnGpRx46KGHEhYuXDifoqguDodDAlssSGigQscv3APdAgpwlKOtn4v2WxwskOc7y7IyeFPDoQGBC34AwMPcMG95d1xc3PJ777131Lx58/JKc95CDdBhbJBY54EHHrjrzz//nMYwTD0otIIfcBDf7IAdzG4eDNRx4EZaEfgMDnHoO8t3wuQ47oCu64u+++67N+6+++780uQ96YtwIBQ4QAA9FGaB0FAmHLj99ttTtmzZMs7tdg8VBEEAUEfqV9ymDg+3S312ggqLh74c8CBAj4qKovLz8wPPZln23U8//XRSv379zpf2oEMR0GGMLpeLmTp1ahtBEF4xDOMWn88X2HfggAX+C0WBdzA+2ecD+UpAW5DGkUofteM47njdunUH9O/ff7PL5SL53Et78ZH+QoIDBNBDYhoIEWXFgbvuuqvuihUrPmYY5t8QwoYyj5X0eUWpgQsDHbjPcsRTFEXZ98ADD/T/4osvAiFypX2FKqBbUjhz6623dti4ceM8mqbr67rOgBRdmNNbcXgD9wKQIy95dI+lXg/8q2maIYpiriRJ73399dcvQYhhcfombQgHKiIHCKBXxFkjNBebA6A6v/vuu5uuXLnyWcMw7qNpWgAPdFC9417Ql5MC0XeXCZ8qVMqEZ4GdvXbt2l8++OCDU1wu14FiE1/ChqEM6Baoc506deq8devWKVaJ10ABHLzoSgmHHGiOtC7wG9TrWBgcxLbvTkhImPrJJ5+sKs2Igiuhk9xDOFDWHCCAXtYcJv2XOwcA1Pv06dNw6dKlC03TbEXTdMDjGlfN4kTi6vfCwLwwid1yrgvcZh0AdI7j/nrggQcGfPrpp3+WJTNcLpfzpZdeSguV4izBxgrq92XLlrXds2fPXE3T/oXmojBQvxIJHoAdksh4PJ4zNWrUeHz27NnfEge4slx5pO9Q4QAB9FCZCUJHmXIASqNyHNfjQsWtZzVNa03TNB8sNtpORBFx0P8jmYOEiEDdNE2Fpukf7r777te//vrr9YWVCi2tgVcEQLcOOkyXLl1u3bhx41s0TdeDrHr2aAKkDSkK0PGQNJhPKywQvNmPchz34aRJk95wuVz/V2GntJhN+iEcCEEOEEAPwUkhJJUNBwDU77nnnpSlS5dOYVm2H8MwPDhlXc0VzPvd8q6GOt3r1q1bN6JTp04ny6rCGk57RQF0C9TZrl273rxx48YZpmm2BVC3mzTwkLTLzRFoWsCW7vP5KMsB8UydOnUefffdd1fdeeedF6u4Xc08k3sJByoCBwigV4RZIjSWKge6devWdP369e9wHNdW0zQ+WOKZYAloLkcEXp6TZVm/pmkbbrvttmkrV64ss3KpdnrsgA7f2yVc639TFMXlaWlpj7Rr167Uve2LO1lwwOrWrdutGzZsmCdJUk2ojoZSweJzYp8f60AQ0I4gvoOK3efzmTzPH4qOjp6/bt2611u1auUtLi2kHeFAOHCAAHo4zCIZQ4k5ACFtaWlpz5im+YiiKBJ0gKeJxZPRXK5zPMUrgJHf75cbNWr06uLFi2e1aNEi71pmIrMAPd00zdZ41jR7LXHTNEMC0C1gprt169b+119/neL1ejuC9zsCcGS+QJXu4DBiN5OgtLEgpfv9/n2NGzfu//bbb+8qzRz5JV5c5AbCgXLiAAH0cmI8eWz5cgBUvB07dqyxcePGzx0OR6AQC4S0IYm2MIc5JPXi1CPAZBgG4pt/Gz9+/P0zZsw4eK1HWBEBHXiUlpbG9ejRo4XP51tmmmYyHKyQ9ztKEmNJ4BdZCocnuGDeYM40TXNLkjTV6/XOupaHqGs9x+R5hAOX4wABdLI+KjUHunfv3iQ9PX38hRjx+8FRDoAcSedFhbUhxkVGRsJhQEtOTp5/zz33vPLaa68dKg+mVlRAR7y68847e6anp0/yer2teJ5nAaztErmVd/9iSVor5/ux1NTUJz7//PMNzZs3J8VWymPxkWeGBAcIoIfENBAiypMDXbt2rf7jjz+uYBimFYS4gaNcsAprwWhEtluKov4cN25c31mzZmWU11gqOqCDTf22225r9eOPP74ry3JzURQZBOgoCQ1eAteS3vMjIyNn5efnv0wk8/JaeeS5ocIBAuihMhOEjnLlQMeOHe/6+eefx8uyfNM/2UPZgNNVsOIsuNqdZVlF1/V1DzzwwOzPP/98Y3kOYtasWRETJkyAOPSADf0y6WpDxoYejF8dO3a85aeffnqTZdlmUEUNtcGr3zmdTsPn851MSUl5u1u3bh/OmzfvbHnynjybcCAUOEAAPRRmgdBQ7hwwTZPv0aPH9atXr34hIiKil8fjEXGiEDjafus8z69bvnz5sFtvvfX0tQhNuxyjSgjoy9LS0oaUp5d7YWOBgi5jxozp+P3330+NiYlpqSgKA5n9kFe7IAimz+f7u3r16hO+++6779q1a+cr9wVECCAcCAEOEEAPgUkgJIQOB+64447Ga9aseY2m6c4cx12MU0fJYrDfXtM01/bq1WvGt99+uy0URoAAnaKo1ijJCtBViJd7yAK6RTN9++23d/r++++fFUURJPUqMCaWZfN4ns+oUaPGooULFy4iYB4KK4/QECocIIAeKjNB6AgJDoD3e69evRqtXr16Ik3TvTVNi0Kxzqjoh2maBTExMe8sXrz4tU6dOmWXt2SOGGeX0NHn9uQ3kFveikMPSQkd0Q1zkZ6enrBq1aqqn376aVJcXFy12rVrZ06bNu0YRVFnW7VqdXVZgUJixREiCAdKjwME0EuPl6SnMOJAnz59aq5evXqaqqoDID+LVfccRihzHLfio48+enrgwIEALCFzhRug44wFZ0Xi9BYyS40QEqIcIIAeohNDyCp/DvTq1Sv5yJEjHUzTbJyZmVm1QYMGOREREb/Xr19/08KFC8FmbpY/lf9HQTgDeijxmdBCOBCqHCCAHqozQ+gKKQ4sWbKEDfWKXQDo48ePT6Np+mKmOGBiRVW5h9QCIMQQDlQADhBArwCTREgkHCgOB0oI6CvKO5d7ccZE2hAOEA4UnwME0IvPK9KScCCkOYAAHbzcg3i2B2gPpeIsIc1MQhzhQAXkAAH0CjhphGTCgWAcsAD9B4qi2hQD0EM6bI3MMOEA4UDJOUAAveQ8I3cQDoQkByD165QpUwDQob74RRqD2NAhUxwB9JCcRUIU4cCVc4AA+pXzjtxJOBBSHAAJfdy4cT9KktTS5/NddIZDeemxVLCmIAirfvrpp0Ft27Y9F1KDIMQQDhAOXDEHCKBfMevIjYQDocEBiNEeMWIE98svvyRkZGSs8Hq9/4JkOHDhNcTRZxzHGYqirO3du/foO+6449jw4cO1UAvBCw3OEioIByoWBwigV6z5ItRWYg4AcM+dO1dITEyMzsvLq/roo4/W5ziuvsPhaJqXl9eMoqjaNE1X43megepkqEALqN/xUrBW4RndMIw8p9OZqarqXlVVd4iieGDgwIEnb7755pOGYXgGDx7sr8TsJkMnHKhwHCCAXuGmjBAcrhwAwKYoijl48CA3efJkp9/vjz106FBi3bp1E3mer5mZmVnnyJEj8bm5ucm6rsNniZqmRUJhGSgPxzBMoPQrupDtHAAc/kZ13uF7DOAhBZsZERHhl2U53zTN8zRN/01RVHbPnj2P0DR91uFwHDt//vwpp9OZFR0dfX7BggVQDEWjKMogkn24rkYyrorIAQLoFXHWCM1hwQEA8Hnz5kmKolSPj49PnDNnToOMjIymhmE0UlW1qaZp8ZqmOSmK4mHATqczIHVD5TGHwxEAaLCPgyrd6/UGeAKfw/fwGXKMwx3k4HOkhkegzvM8BQcBlLMefguCEOjHuqCqHLRRBEE4bhjGYYfDsUPTtP2TJk06uG3btuPt27c//8wzz3gJwIfF0iSDqKAcIIBeQSeOkB36HLAkbvbgwYNslSpVeEEQ+P79+4uGYVRhWTZl9+7dLd1ud2NFUQDAExVFgc+dgiCwfr+fBsAVRZHyeDxUVFQUlZ+fHxg0/jfiAgA7ADUAM/wNlckAyJFDHLRDfyMAR4cEdACA/9EhAf1GnwHAK4oSeFx0dLTpdrtVhmFkQRDOq6p6muO44w0aNNjesGHDP2VZPgpV0UaNGuW78cYbFY/Ho6WkpIBErxPAD/11SyisuBwggF5x545QHmIcePPNN0WO4wCQa+zfvz/5vffeq6XreophGNUoiqrFsmyiYRiJsixHGobhYBiGNwyDRpIxgDcAMkjh6DN8iIWpzgGoZVkONEWSOZLKkdodfsN3APTB2sFn0P9Fkdxqhz4HmuAgAL8B7HFJH31u9a0JguAzDCOfZdmzFEUdp2n6NEVRf3Mcd7J9+/aZ3bt3z46IiDgVGxubE+rpdENsiRFyCAcuywEC6GSBEA4UkwNQznPKlCncuXPnHKNGjRJ0Xec/+OAD6ZdffmnA83yNHTt2NNM0LdUwjBRFUWJ5npcMwwCJnAVpHam48TAyAF47CCMwR2CMgzseU45/jgMsrjpHQIxs67h0Dn0BTdAGd6Cz34/b4q2a5BcPBsA6nCZJkigImUNjtBzwTJ7ndVmWFY7jChiGKVAU5e/ExMTt9erV22cYxl5d13Pffffd8xRFqVWqVIF2SkpKikrT9D8nEHIRDhAOFMkBAuhFsog0qKwcWLJkiXD48OGqsizX+fnnn+tu3ry5jtfrTRIEAZzRQNqOMwwjlqIo+OFM0+QA34BfuISM889u18a9z/F2OKgjydp+IMAPAjioApgGA2lojxzjQBsAUr0drIEGBMbQHp6JDgOoX2SDx+LaA6Tj6n30nQXoF4eGPkc8sgAb1As+kOQZhjlvmuYZ+Jum6RMDBw7MrFOnzhHTNI8cPXr0/Lx580gN9Mr6QpJxF8kBAuhFsog0CHcOQCW11NRUad68eRGNGjWK++STT67Tdf36o0ePNs7Pz0/leT7J5/NF6bouOp1OAG6QQgMSN+5whgM54pkd2O3toR1SpcN38ANgjD5H/wO4gsMbcn6zHwQAKJHtHL8fJGoc7HFbODzDrtpHseq4xA7gD//jHvSXWxO4aQD1F+yAA5/hAI/6tOzs4H0PoXV+nuc9pmlmMQyzp169er8ZhrGvQ4cORx955JHsqKgoj8/nk1u1akWAPtxfVDK+IjlAAL1IFpEG4cIBl8vlyMvLc8bFxVUxTTM5JycnLisrK2np0qXJNE2DmjxFVdVaDoejOkVREjimCYJAA5gBMAI4wQ8CNtyTPJgUXly+4YAbTEpHtm3c/g3tgK5gdnUclO0HA3QQQIcRdIiwq+9R3/BMpKZHHvXgHIer7pFDHtyDH0jg2fax2aX6ongEdCKPe+tQADZ6AHhQzx/Vdf2oKIqnUlNTD7du3Tq7atWqJ1RVzXE4HGC/97pcrn88+chFOFAJOEAAvRJMcmUb4vbt2/mzZ89GxcTExL/yyitVMzMzW+i6nrpv377mDMMkqqrqpGlaio6O5goKCnhd1zmaphmWZQMAjqTgwoAWAVUwibwoXttVzgiQcRU53i+uxkZqcmQvh3sRuFpqcMNysgtoD5BXOvQHoAgHEWSzlyTJlGUZpGAGSc9IHQ9gDZ/hHu/o2dAXThM+XqABfpCGAPqBPux55UvCt2D2eVyS53neVBQF4uE1juM0XddBUoe/82iaPlalSpXt0dHR+xmGOVqvXr3M//znP25BEPKJRF/USiXfV0QOEECviLNGaLZzgH7qqaeqSJKUnJub22jJkiU3mabZQJbl6zVNi1NVNUYURRHU5ABscCGws8dcIwDBQ78QiOHqb7skerVTgqR/BKrBgByeAcAKNPr9/kD1FZZlDQAxjuPOCYJwWlGUBhAWh0AVxaVDWzRWTdNMTdPOREdHZ7rd7roURcXTNM0Bb0AiR573yAEOB3qknUD92lX4Fk2BfpDDXUkB3X7osfMWDgrQBj+w4P4EuIZCFEXDNE0FsuJRFHVM1/UTVapU2d2lS5e/ateu/ZsoiidbtmxZ0LdvX5Ik52oXMbm/3DlAAL3cp4AQcDkOgHd4enq66PV6Y2bNmpV44MCBqhzHJcmyXJthmNoURdXMysqqznFcVU3TogRBAFW5wHEcpD+9ZH3b7c7BHM/stBQmjdrV2lc6i/aDAwJe+FxVVYPjOFXTNB/P87ngGU5R1FlRFI83bdr0dL169Q4bhpEty/Jph8Nx7q+//jL37t27mqbpG5EUDMAe5BlGcnLymnfeeeexzz77zG8YRjzLskmaptXcs2dPYkZGRi3DMBJ4nq+lqmq8w+GAUDsJnP6ioqLo/Px82s4X8G4HgAUgL4xnxeURDujoUGBPhgN9IY0AOjDg2g7ER5Qwx3IshIx4VEFBgQFe96ZpFpim6RNFEdTzx+Lj47Pz8/OPCYJwRBTF03ffffep2267DVT7OT179vTTNP2PcwO5CAdClAME0EN0YiozWS6Xi9m/f3+1+Pj4BocOHWq0adOmVoZhXFdQUJAiSVIMOKhB9jQLOAJSN5IicdsvfI8crxDQ4I5ddlCGTGygbselWvwQYG8fzKHLPm/BpFO8DXwP9Fvx3aACB5oh7dsJh8NxUNO0X0zT3D9ixIjjXbt2BQkzFzzCg8VvQ7U1l8v1o8fjaYk/A7ePWxK1GRkZuWLDhg2PBKu2Bk6Cfr/f4XA44n0+X/ywYcMacxx3PUVRjb1eb1OKopIgcR1IytC3LMsM8BoumAcEwgh07Y6AwUwZwZwF8THYDwkIzJGKv7D7cboQH5ApAOgEeuEwAusDDiQcx5kMw6iqqubTNH1OkqRTpmnurlq16v5bb711J03TByVJyp07d+4/gf/kIhwIIQ4QQA+hyagMpABY8DwflZ2dHf/ss8/WNAyjhiAICX6/vz7kKwentIKCglgAE0h7quv6xRhuPFc5btO1q32DqYGDgQMClmDhX8FCsIIBk33O7CCPeXcHcqZTFCXTNA0p306BVCgIwslWrVodT05OzmZZ9m+Hw3EcnLp8Pt/51NRU2eVyFVsqBEB/7rnnftA0rU2wtYQdTgxJkpZv2LBhSLt27UACLdYF2pLBgweLmZmZUVWqVEmOi4tLzsrKqrF58+ZEr9ebwHFcLdM0a3McV0NRlCiapkXTNAPZaoJ5tOP8tIfzIYLwecDj45HEDu0KU7cjXwMAa3y9wD14aB4yT9jXDYqhh/YW71SWZSE7Xo6u63/zPH/Ocso76ff7M1NSUk5PnDgxS9O0rJSUlILOnTtDdjxyEQ5cMw4QQL9mrK58D4JELLDf9uvXz0FRVGJkZGSL9PT05tnZ2c11XU/meT7Z6/WCxznkKoeNn0GbMPK+xn8XxkHc7o3CrZBHONqMkQc27p1tj7NG/diduYKBCgJHPN4acAtpCiwpH5KiQGlSryiKoB7fFRcXt83r9R6+7bbbjj788MPZPp/P3a9fv1LxxLbqof9A03QbS2UfYBmuZbDGaLAsu/zPP/8ckpqaWmxAv9wKTktL43JzcyM5jqv29ttv19uzZ0+DvLy8G9xud0sAel3X460iMpAZLxA5YM1tIFMeXAhYEUDjoXP2cSCAxucT2uAe+WgucI0A0trg6+Ny40LzizQCqC06gBiGAQc14KePYZh8QRCyNU07EB0dfbhNmzY7JUnalZqa+vfkyZNB60JS31a+bfCajpgA+jVld/g9DCRuCPHSNC3i7bffjhk4cGD81KlTq+Tn50PyFSjveUNBQUEDh8NRG8Ab7Nqg2oZsYkhqwyU1tLnjUh0CdfgsmJd4sM0Zl86QFIcDBmzsWG5yyu12ByYHl9JwoIH2AIyQjMUCSBPqijMMo6mqCtXHfJDqVJKkHJDQZFnOiomJOXrnnXf+kZCQcDQ6OvpIWYdQPfPMMxFvvfXWD36//38kdFwbAY50HMctT09PHxpM5V6aq3T48OFOhmESDhw4cMMff/xR/9y5cw0hrp9l2RjDMJJomo5hWTba7/dDGlyB53kWecajg4g9lh2tDfyggifKwT3t0Vjsav7CIhguo2EJyhYUUog7M8J6tbQCwGefpmkZNE3vNwzjL/B/aNKkyVLWluQAACAASURBVMlhw4ZBaF2erut5Z86cyXW73SXSxpTmHJG+wocDBNDDZy7LdCSWtM1+9dVX4pdffgl27DqapjXZunVrY8MwGmqaFsPzfBVVVaMB4BVFgdAwAe6DUDDcI/lqCQ22GSMgxoELt6fDM+1qV9xbGu6HjRhs7Dg4WLSiJCcawzAenuezIiMj98fFxe32er2ZUVFRR4cOHZp/yy235Ofk5OSLopgfFRUlt2zZEqTzgDf6lVxwWFq0aBF4rTd1u911IiIiTguCcHDp0qVgy/2fRCogoY8fPz6d5/lWiN94JTVMCgaP7uU///xzUECHsL/nn3++jmmaHVRVre5wODKcTufur7/+OjPYc4s7NlDZf/XVV3xycrJ47tw5p9vtjpk2bVoErBlFUSAj37/y8/Ovh/Wk63qCqqpRPM8DyDNerxf2qoA0j+LSUeY6/MCH+wvYY+UBdAvTwhR3DMHWHn7wg+/hufaQQUVRTEGAbMG6ouu6LzIy0lNQUOBmWdZjGMapqKioE82bN99ftWrVPX6//8Ann3ySe+bMGaVx48aQ/vaK11Bxx0XahQcHCKCHxzyW+ijAMa1OnTqCLMu1li5dWiMtLa25IAhgI/2Xz+erFxkZWd3r9TpUVb1kDdmlWiStAIG4RIVyfhcmKRV3QHbPdSSNo8QpNhX4RY9vAAWQthEAYCBuwsWyrGZtttk8z2cIgrA7MjJy38MPP7xPUZTM2bNnQ93wYtu3izse1C4tLc0xaNCgHsePH3cBwLEsK9A0DeFXBTfddNPUoUOHLhg8eDA4yF28ANBfeOGFH/1+f0v7AcfmqAaaheV//PHH/6jcV6xY4Rw4cODw8+fPDxJFMVWWZZhfxeFwnDBNc+7atWvnd+7cuaCk4ylue5fLxcmyXEUUxbo//PDDdb/88su/IOGPJEn1RVFMycnJiXA6nQyEIMJhEcaFitpYDnqBRyHHRvsBz36oQxJ5UU55RdEfLOoBxf7jGgP4G2gDDRWaI2wNw8FRliQJwg8PRUVF7fP5fNv9fv+Jd955BxwkzyYmJnpIQZuiZqPyfk8AvZLOPUhhNWvWFI4ePeqYOHEi2DdjVFWtfeLEiZo0TdfMy8tLzM3NTaQoKtkwjID0DRppwDrknIayp6HqYGjzRKptxFpbNa5LOF6YihM1sqvY7dOFS2R2NTu0xTdN6AtisEHigdhk8GbmeT5PluXc5s2bn5Jl+Qw4qem6foSm6VOKomT379//dJcuXfLi4+PzrpW0lJGRIXbq1Gng6dOnx+m6XpfjuIAa2gIqoP2MLMsrpk6d+vzzzz+fhXgCKvfXXnst3TCMViiBjD2bnCVBQuz68p9++ukSp7hvv/02fsyYMY8cP358XGRkZHxBQQGDpE2WBd9E83SLFi1m33XXXW+VtfkAxoRCFjmOk1wuV+ypU6eSQX1/9uzZpMTERHC8q+X3+5MOHToUy7JsgmmakeB9T9M0GxERwbjd7kB4HUraA33i5h587QRbbxYNl90h8ANlYSGIyBcA92tAz8bD8pD2AUVayLIMmhRPdHS0z+PxZKmqej4lJeUION9pmgZOlMchJa6maSd69uyZ+8gjj/jPnTunXqt1Wkm3zpAeNgH0kJ6e0iEOpO2kpCT21KlTERERETWnTp3aSNO0ZgzD1FcUpZ4syw1FUYyBDVSWZbCJB9YFkjBgo4HNCBXzQBsdCheDTQmFg+ESN56dLNhIkJQO3wWTlIorvdvt2ygUDO6HbGiCIKh+vx88lHOio6NPgEqToqidXbp0OZGamrrb6XQedblc4LQUEpfL5UqZOXPmd6qqQoa7AE0ImADYAZTAdn8hGuANl8s1zeVyBRzbkMrdNM1WKAQPPg+ixQjY0HEJvVOnTolbt26dJMvyQIqiwLkt8FwU1gUSJawDnuf/bt269eBNmzatDwVmwZqdMmWKBHkJ/vvf/9bbt2/fjZqmpWiaBkmFanEclwC+ctAO/aD1BuNBB6XSGAt++MTBGz8soFA50BTAs/G4fYu/AXW93b8Ed+azEgCZhmHA4oDEOeclSYI0uAcMw8i85ZZbdnfv3v0QwzDgx3FmxIgRJM99aUxwBeiDAHoFmKSiSISN6u+//3a43W5pzZo1UcuWLat+9uzZqpGRkSlQGWzXrl213W53dZ7nISkLJGCJsSQZDpzUHA7HxXSnALIAzvhGh9TXSPIOFvKDwLewpCIoCxlsYLi92i4ZYWFeF9OIIg9ju3OcJWmDetzQNM0viqIHpBhwThNFMatx48bHeJ4/o6rqUZ7nT/v9/lMvvvhibpUqVTw333yzN1RLc7Zu3brDtm3blsEhC/hlnwvY+FVVhSQpAOSrRo0aNXvGjBl7Hn/8cef8+fPTFEWBuP3/yaOOaUrM6Ojo5WvXrn0EwtaWL19e+95773WZptnXMAyo1X5RZQ3Ag9MgCAKUNp2+cePGqaGYPhW87RMSEhyrVq2KXL16dYzf708EezwkI/J6vQ12794dLwgCSPpVPR5PNZZlI+DsalXLA9APLEn0O5hDHv4+Qju7pz18j0vguCYLP7jianp4x6Afv9+PDk6BA7RdLY/eL/Qb7kEFeBiGAXBXIY8BeNwzDHPONM2T9evXPwlZBEVRPOb3+0GyP5mcnHx+9uzZeR6Px9eyZUuSNKeoTbaCfE8AvYJMlJ3Mvn37snXq1Innef66VatW1fvrr7/AblpPVVUoMgKxwOB5flHaxm13SELBNy3cgcyuDkQbHAJWu0odtQ9iE7ykmhcO9rgaHg8JsgM6+s4mwYOjEIQJZXEcd0TX9b2iKP4+ceLEwzzPH83Lyzt5LVTCZbV0mjdv/sjevXvfBadCvBCK/bCEYqOdTufaIUOGjNy/f39OWlraJpDsce2G/T7If66q6vLHH398SHJyMjd79uyXcnNzH2RZFuq3X1LtDUmQSFqHQxTDMJ/s3LlzVPPmzT1lxYOy6teS6EVJkqpmZGQ0Wrx4MaS+BUe8JlDH3jAMMDE5wbQEbVEIHQ7y6P2B38jchBLqIE2WHdBhPpDUbv8bt98jr3l75Aauzi/MbySYxgHdB2cU9GOaZi7HcWc4jjus63omz/NwGNwDmqrz589nkaQ5ZbX6yr5fAuhlz+MSPwE2kr179/L5+fkOjuOE/Pz8yBMnTjgnT54MoT4Qv52anZ3dXlGU6qqqQtYuSMspgnYV7sUfWFS8bWFqbfgcSRC42teuokT349nVcKkb+sDvh7+RfRdtkvA/Ur/zPA+OZoaqqoogCDLE9/p8Pg/Lsrksy57Rdf1k27Ztd0F8b926dY88//zzORRF+VNSUiBhS1h4A7du3brPjh07FhmGIQGP8Jh3tPkjkLbMGp7Y2NjXOI77+Pz5819omtY62KaP5gUkOZ7nv6Vp+hme54crijJaURSwP1+U6nGQwT3lTdMEu+77GzZsGNu5c2d/iRd3iN0A78vBgweFvLw8x4QJE6pAeGV+fv6/fv/998YQWUBRVBzLslUYhonUdT2CZVkHFPOBNLhW6CNtP+japWcE+oV54+Pt8drzyCvfrjFAB+rimqTQu4ybBCB+HgAeqvmwLAsHZHB0PBsREQHRG4d4nv9V1/XjHTp0yH300Ud9IPXDe5iQkEA870NsDePkEEAPgcmBTWX06NFRkiTVyM/Pb/jhhx+C1FDbMAzIVR5tmmYCOCm53W7YcByGYXCKogQ8fO3qP/tw7NK0/fuinM5Qe7vaPVh6VNyDGLeP47Z02LzQ/7B5Wak2ZU3TAtnTOI77DSpjgaRNUdS5KVOmnI+IiDhDURQU18iLjY2Vw93Lt3Xr1qnbtm1b53Q6a4AK1p5wBR2IkLrVsqsXCILwXwAjXddTCjN9wHxagL6F47gduq4/rKpqLFLbIpDANSXwN2bz9V7IK//UBYe0j8rSy7+8X0vwO6lXr57k8XgiHA5H3Pvvvw/asKo7duyoBir73Nzc1MjIyJqyLDegaTqaYRhR1/XAformB7QruOMdkpbxQy7SasF38Dl+TxFzGGBRUe83doj7Hz8VoBM9F/pBawA0OIZhKIqiQH4FN6S6VRTlDByoFUWBLHhHevXqdRTeU4fDcXjGjBlwqCZXCHCAAHo5TgKE3Xz//fdVhwwZcuuJEyceviA1NaMoKkrXdQhYhfhtSKFFo7KX9hKYwRKzXG34DS5dQ192IMdt4Tjr7E5Y8J2u64EsWqZpgos2pMyEmNsCTdPcNE27OY77Oyoq6kiXLl0O6roOGdSy3nrrLU+DBg2gfaWtfvXwww/Hf/HFF++qqtqbYRhIuHJJwRO7Zz+SAKHgCPhEGIbB2IH5klM8TYPfgQLlYlVVhf4D+0BhvgqwBiyw0SIjI38YNmzYY6+99tqhcnx1yu3RlgaMOXLkCP/ee++Jf/75Zw1N0xps3ry5rd/vD/isaJoWzzAMmLyiQH3PcZwDJHp4p3GHUwBvuzMoAvHIyEgoInNxnDAHVpTGFY8dP7yjTuz7RSHaBlgvyMYPkr0WHR0NTpmQ735v1apVPxs9evTqiRMnng4XLdkVM7mcbySAXo4T0KNHjybr16936bre1TTNaHjhkc0Ot6XBS2Z3crLHGZfWMILZs5HXOFIZgkQIz4e28Ds/P/8i4ED2NMMwvIZh5EZFRR30+/27VFU9IEnSyfbt25+75557cmJjY3NycnIKUlJSvL/++qtaknzlpTXOUO4HDnp9+vRpumbNmmmqqt4GYVjItg2SMkpagtTqwRwJLzc+3C8BmUMK82NAhwk4nHEct338+PGjXn755W1k476UwyDRx8XF8aIoOiAL3pdffhndu3fv2G+++SZm06ZN9XRdryNJUkOfz5cKle1UVRUiIiICzqgojh7mE+YWz5CHvOLRgQtJ5IXZ2kuyru2HCfx/pKZHefBBqIBn48mY4G+gQ5blfKfTuaZ27dqT/vrrr4yS0EDali4HCKCXLj9L1FtcXNxsv9//lNfrDejOcUexYDZQFJ4VLKylRA/GGttf6mD92JN0CIJgKooCyUl0wzDyOY4Dz9lTmqbtlSRp95133nlAluWDXbt2zX7iiScgZAYVJrlSMivlff3792/53XfffeTz+ZpxHBew1eLV4uzaFPgfl96LsrHi39s3c/S/FZIIYW4HGzRo8PRff/21JlSjA0J1kVhSPd2vXz+R47jo48ePp/zyyy9Qz+B6juOuo2m6oaqq4B8TKYqiqKpqQMOC8t2jcQVLXnOlY8bnF/m12PtC6yNYfD1qi+LowbciMjLyoxUrVozv3LnzJQmPrpRGcl/JOUAAveQ8K5U7hg8fzi9YsGCLqqqBmGHYqPHNGkngaINGLxe+YWMv01XRZN/YrRhksKNBv5CuEmxpuZGRkaBiA6/yUwzDnDAM44Su6yemT59+rF69euC0dq5nz54+Ir1d1XRcvHnPnj1Cu3bt7rngIDhRUZQbdF3nUYY73IfBDsZ2+/eVUIM0RXB403X95ypVqsz++uuvV4eDI9yV8KO070GZGCMiImJWr16d+MUXX1QDh1fTNJM5jqtHUVSgFr1pmkkcx0Xoug6VB3lLQr5ohrsauoId+NBnSEJHGgFkb0eZH3EtAio/K8vy0Q4dOjz0448//nQ1dJF7r5wDBNCvnHdXdefTTz99/RtvvLEJ7G12OzXqGPcutjxqAxIYAvVgscY4UUVJaMEGAM9xOBwFDMP8YZrmr/369UuD0pBJSUlHZ82aBbHbYeFJflWTd41vvv766xsdPHjwFU3T7gYbLHI4LKpMbDAyC9vEoS0exmhJiHCi29+iRYsHfvvttz+u8bDJ4yiKHjBgAOSzj8vIyLhx//79Lfx+f2eapltBvfpg2pqSMq0wUwsyr9k1eLjmEBcurAqFWlRU1Bi32/1WSekg7UuHAwTQS4ePJe5l0KBBDT/55JNfGIYJeBjDZU8jCbZqu0SO2zxL2wEOaLAA3Q2ADuU+b7nlll8iIyOPFhQUZIJtfNSoUf4mTZoYKSkpgSxVldl5rcSTfoU3WDb1ritXrvyM47h4n88HDpOX2FvtXRd2mAtmYsGTp6ADI6hQDcPYHx8fP+tCOdRPwz2y4AqnptRuQ2r5efPmscOHD2emTJnCLl26VEhKSop0OBwxx44da7l79+7GNE13dDqd/yooKAjkKLjaK9h6CPYZXlIY/96WWtmIiIh4Ni8vb/bV0kXuvzIOEEC/Mr5d9V0jRoxo+P777/9CUVRscTqzq9eDbej4gQBXmRWmgg2WNAO9rOjkbm324HWea8WqZlMUlQ3x4JDvXNO003Xq1Dn6xBNPZEuSBCr4nCeeeEIhknxxZrX4bUBF+8cff3RdsWLFY7qu9xIE4WJ+dzjkBdPyFJYUJZgWB6XxteYbIhN2PPbYY0M6dOiwl4B58eepOC0BvD/++GPR7/dHZ2VlJbpcrhoURVVnGAZCVWtCulooMSvLcgzUlzdNMwq85O02dVyrUthzi6uRsXwlgma4g76R6h0PTQ3ir2HGxMSMyc3NfaM4fCBtSp8DBNBLn6fF6rG4gA4vDXrZoONgaSbxByIJK1iOalwSK0q6R4COAB6eYf0dULlbmwtUJINQKbcgCG5d17NN09yflJR0qFGjRuAYt/eJJ54436JFCwhZgzAXzel0apU9LK1YCyRII5DU77vvvvrffvvtlxRFNYfa4aB2xT2hiyupo3ZoU4bf1toCR8f99erV+8+hQ4e+uVJaK+t9KKxt7969bGxsLCeKIrdy5Up+0aJFYkFBQbwkSdfn5uY22rlzZ0OKouoDkMOhHvJLgBrd4XCwcECDKobgJ4Fqw9tT0iL+Fuc9vlwb+36Cm3Hw73CbOXLYww8U1sEBUgo/5Xa736ys81/e4yaAXk4zUFxAR0CKJ6NAccEokxSyr9uHEgz8g6nTgrEAB3L0Pf4Znq0K0Ya99KCuBakedIJuURRzNE07B97wNE2fgXKQdevWzR45cuRh8I6Hz5s2bZrTuXPnf0qKkeuyHOjTp8+/165dO06W5bsh0RfaYFH4E8xNUYVx8Acg7Q/kDKBpetsNN9wwfO7cuXvJfBS9EKHcqyiKURzH1QBpe968ecl+v7+eaZpVdV2HXPHVeJ6HUsOxkG0OKrtaaWUZ5NhoT9KEa9TwxDEo7wROVVGAjh/ckNYODgx4v7ivDp4CGneQQ+GShSWyQYBOJPSi10xZtiCAXpbcvUzfw4YNa/TBBx/8XJTKHSVsgRcG1VFGII+/+Jd7ya/EOa4w4C+qL1ztj9S4cA/KQgVe05CYQv3Ho8cjCEKeqqonRVH8q0WLFochU1xeXt6JBQsWQCicl+M4KAephXNWspIuQZDU+/fv32jZsmWLaZpuChnKoJAH7tQGh6yiKonBvKDyqJA/QNO0A3Xq1Jl45MiRZYTf/zcrVhlXNikpSfJ6vY5FixbFbtq0qRF4pe/atetGXdcbMQwDZYeryLLshJz4HMcxMCeg2LIfrHG1NbzT8CqgokXILl6UJq64B3OUkAaFpuHvLx4GhzIBolh49Hy8PbRByaag+h5+EUAv6VtcNu0JoJcNX4vstbiADrZoh8MhQ1lTkMZgo0ChI7idHL3gSDqD/60NpdDSpEBkcU/4RQ0IZbhCmxXaCHCVLn66xyVI8NqG76D+syiKPk3T8kRRPCSK4hGv13sKbPPNmjU73aZNm3PVqlXLVVX1jKZpOUlJSb7KWhoSQD0qKqqf3++foOt6qiAIHMw30t4gVXywXP64psVS1+uSJO2oXbv21AULFvy3Xbt2l+7WRU1+mHy/ZMkSdu/evQDGsYIgVPN6vXGiKFa5kLWv+oEDB2pA8SNIyex2uxNFUYQMcZD9LZBDAh1k0XsAPMYPt/CeFQbS6F1B7YsC86tht33ukbkGXydI7W4dyDXYf7xeb+CQgh8Sg+U8iImJeYrY0K9mhq7uXgLoV8e/K767uIAO+csbNmz4ckJCwrEjR460OHv2bENFUWrwPF9TURQoFgHxqRzLsizP84H4VFSu0S6lFfdUH+TkHew0fsln9kQ4+OkfbW7oBnQgQRshcvYBbQSAkrW5BGz1WOpY1eFwKLquq5A+luO4fJZlTyQkJGRGR0dnUhS157rrrjs6bty4AlEU85s1awYlIf8JHwjTa/v27fwbb7xx3eLFi19SFKVHZGQkD5IT4mew5ERoDWBrwZAk6bfRo0ePmD59+u/hzjM4CO3YsQMKrEibN2+OXbhwYQ1Jkhrt3r27hdvtruVwOJLBGY3neYeiKFAch5MkCcqrAm+h+hqk1g0k+QHghQvlX0dAHEwtjb97yM8Fd2bEARUdinHAvNIljEvaaD2gXPNWaFqgSAukAuY4zi/LMkS45NA0/VfNmjWPG4bxl9vtFrxe7xSHw5EAPECV5XAnPXQoIYB+pTNVOvcRQC8dPpa4lxIA+rnXX399wFNPPbUOHjJnzhwpKioqPicnp/5XX30Vv2PHjsYOhwNAPlXTtOosy8ZB5TUrZScjiiKNNnm4v7BNwm4zL8wzHm9nzyWPvKqRlBJM+scLTuC1nYE2PL0pvsGhzQKXDnANACTX8vl8eYIgnKdpOgvKQTIMs2/IkCF7WJbNjoyMPDZ58uS8cPW879OnT4eVK1cuVFW1FqiHC8trgIO59TeEHR5PSkp6+vjx49+Fo5od6qP/+OOPTsj3cOTIkcarVq2qkZeX11SSpLqqqtZTFAU8ygM10QHs0Rq0DpMB7RY6GCMHVbyQCb7GcekcP7zaD9IAsnCffT0DkEMxHnTZo1bwTaYwc5t9I0ISONAOhZAslT5U24NIlDxN0045HI5DiqJA3omDM2fOhJKqUFr15JgxYwLEdOzY8fpNmzZtMAwDKjtezPmPH1yIyr3EEFAmNxBALxO2Ft1pcQGdpumz06dPf3DChAkBQLdfEM7y999/8+vWrZOWLl0a6fF4QF2YdOzYsYSsrKwUSZLicnNzkzweTwJN01AKEpx1oIIb5JwG9T1IGxeLc9i9aVGCCfy5dlDHDwr4JoQ5WwVuD7IBBD7HVYzB1HjooBBsEwNaUI5pK9EGSBygutdM0/RDljuGYXINwzhXt27dk6qqnhUE4STLssc9Hk+OJEmnBw8efLZ9+/bwd0HLli31igZsS5YsEd56661umzdvfpqiqA4sy0I1vkCOcLvZBQN1EDP31alT55nFixevb9WqFfg0VJgL1u2OHTtAgnZmZWVFjBs3DoqixKmqWoNlWSiOUtvr9VYH9Th87vV6wSEtmmVZOOzyoD4G3wOwYUM+dVircCHtFnIOw6VQtLZxuzLcY69VjvqB3/ZELPj7BPfhBwi8f1Q7HU0IPDPYe2ebMNBIwfoHZ1SoTphrmuZph8OR3bBhw7M1a9bMBnMVTdNQzTDb6/WeZVk2f+DAgf6HHnoIDP6w9v8ncVS7du2abNmyZa0gCDXw2Hf7gcM0TRK2Vs5vEAH0cpoABOg0TcfaJVl8wygK0ItDPmz4Z8+ejRAEIf6zzz6rkZaW1jAyMjJVUZQGqqo2oCgKUkyCWhE2PNjoA0APdCEQRkCLQBq9zLgEAG1xQIa/YSxI2raD9eXCrZAkgPMG8QVJQsVRSQYzM1ibIzjawc95wzDOgM2eoqhD11133b727dv/JQjCMdM0z7722msVwp4M89W7d+/2K1as+EKSpGSPx0MDn2CscNDBy3SyLGtCrn1Jkl745JNPvq4oceZ9+/Zl69atm8QwTIMDBw7U37JlS2PwKFdVNVlRlLpQ2ez/t3cuwFVc9/3f99370NX7gRAgiAHzMn7ErkkmKZ4mce2ZtLE9kOTvknFqO27HDhm3nth47ECcYtOk48TUTQaPUye1k0lM3Hbc+NUQGxcIscfYJDRgkBCSAElI6Hmf+/7ne30PPayvxApJaIGfZjQI6ezu2c/Zu9/z+53f73cEQYDIFyxtvwdptM8K7zXyx3z417fZ8hFvXfuFmVn1/OSAF2Z+PZ1dr1huuWC1+1NP2R4PTNSxlznaFydrpiRJ2Hp4UNO0FsdxDqmqesg0zZZ/+Zd/OQYPVTabzUykNgQEfffu3a8KgjBztJgbstCDvImnvg0J+tQzLnmFcynoJax6jLv8yiuvyM888wzWEyswuVYUBcUsGltaWma2t7fXI+0GtaVt264RRbE2EokkcrmcghcmPG98IBCLomUvJt7y8L/M+BcoP8tnlrrf4uFfzrwLdKyhY0JeKveet3bY9XVd93K5HIwMB2v1hmHkFUUZxB7QNTU1vblcrltV1eO2bR+NxWK9t9xySxd2jhseHk5ls9mRMIgi3MurVq36xMmTJ+8pKyu7MZVK6cxKZMxjsZiTy+V23HTTTWtXrVoViqIx6LdpmhHDMKqR3gVrWxTFetu2G1VVnZ3L5RqRrz04OFinKEqZKIox7FaGTUywxXBx4lmYgJ4pyLPU30vFGvACy0rt8t4k9gwxD1Gp8zKx5tPC2ESVrZ/jX/55567lyLKMCeeI67r4PhaNRgcaGxuPLVmypO/w4cM9VVVVnQ0NDSeHh4d7y8vLM01NTbnHH38cnpaSlvbZvupI0M+W3Lk/jgT93DMvXHE8gv7oo4/eum7duv8+l11lm0ckk8map556qvqNN96YJ4pik6ZpVzuOc4nrurPy+Txya3VE35cqaFMqape32v2Bc7g/9mLkRb/UfXPWyof+zLsmeXe939r3X4//P160cMcWXdce1jaLwUTIlc9B6AVBgGV/vKmp6Z3rrruuU9f13/X29h597rnnsInNtNS8h6V+ww03zNm2bduPJUn6mCiKBfd78d7Rp5ZFixbdf+DAgf88l88Tfy30ce3atah+NscwjEtefPHFq9Lp9BxRFC9RVbUulUpV2bYdkyRJgzWq67oI/nxsAH7mrNQPZXLwz4Dv2qfdtt+j5PdIoTGuw0qfwtvBP7dMoJnlzgSeWfDs/Pg9c6Ozzwrv9SpmeBgISLMs67Aoiodku9EVKQAAIABJREFUWT7sed7eu+66q/fqq69Gamdq1apV2E+hsGvSufpasWLFst/+9revkIV+roif/XVI0M+e3YSODCrokiT1b9y48f+da0Ef6+a2bNmi7t69uzoSiczdv3//wh07dlyqqirccfhdlWEYZWVlZeWDg4MJSZIiH7wTFdk0zVM5ubzrks9XZ25SCCqzbJibn6W6jVbcwt/nUu52fxs+kIkJfqm0IX5igGPYcoSqqh5e3sXlhmw0Gu11Xfd/XddtjUQiR2zb7vzSl76U+vSnPz3kOM5IPp8f0XU9W1tbm5/Kwi2rVq1a9stf/vLL+Xx+ua7rccuyMvF4/N3Vq1f/6NOf/vT7U+VRgLXd19cHzwBc34lYLFbV1dWVeOCBB2odx6lRFOVS27bnZzKZeShzijVwWZbFoqUqsjVaZDwgmJPlyWPs2dINq2lQaoLGT8rG+wHlxb2U1Y7zoT9oB3c3fmZFWvzPDFvugMvH/kDdHUmS8pqmZfAMoP6CaZqIKEcp5c76+vr2P/uzP2uxbbv9vvvuOx6mmIZPfvKTy3bs2EGCPt4Hahrak6BPA/TxWOgQdFjoowXFTVP3T7ts8SWOHJ6o4zjx2trasu9973uJyy67rOzpp5/GlpALHMfBns9LUqkUKmdViKIIgZfYy1zTtMLLnAVy8evkuBi/Ps9etkHX0M/khmVWGLOq+DVR3t062mQAv4fg4IsJkiRJiDa0FEUxHMcxUB5XEITUHytpDafT6X7bto9//OMfb2tqamoRBOFANBrtv+eeezIIypus/eMROxGNRhEACdFEVPPgjTfeWKh2MtEvRIRj6eVLX/pSRJKkhlwuN3vfvn2LWlpaFmqahvXsCsdxMKGrgGhblhVXFAWR5Apc5eAKVszlzFc99O8i5g8sYwFrGH+21BNkjEe751Lr4rgmi//gvUXsOvF4XMhkMhh3CDaWn6Dd+NlFmWNMoCDUiUTisK7r7xqG0bly5creL3/5y6ixkDZNM6XresayrHwulzOmaoI10XHG8RD0nTt3FgSdKsVNBtGpOwcJ+tSxHfPMQS107DG+cePGUAt6EIQo2vFf//VfejKZREGOhc8//3xTNpudh1Q77CBm23ad4zjYKhJCEHVd95RlzywyPn3IH4AXpA8TacMXwuFdrrzY+FPy+AhpVpaV90DEYjFsaWZhnVSSJJTAfR/5v5lM5sTnP//5YytXrhwSBGEAEwHHcTKGYaQGBgasDRs2TLnLlW0gglKlmUymvKmpKdnf31/e399f8Y1vfKNG0zQsuzR7nndpPp+frWlaMp/PQ7ALsRUsxQtCjW8IOLdscVrGgz+ojFVHZCVReevXH2Hu//94x9gfOe4P5GSTNdu2C9vPKYrieJ5nYKMiRVFy+Xz+pKqqqHbYJ0kSUibbb7755gPl5eXd5eXlR6PRaOpcjNd473s87T/xiU9ctmvXLgh6Iwn6eMid+7Yk6OeeeeGKF5ugl8KMwijd3Yg1U/VIJJKEeNx5550VuVwuHolEsPPUpblcbn5/f//8YuUuROErkiRhUxKRWfX8uf1rp2ey3Pw1z5lrna3R4/+8xcgCmHBNnNvvmvXngPOle9n6Ko71p/wUg/1g1TuWZcE9i+h6fEM4MnDXO47TLUnSwJ//+Z+/qygKtrM9/MADDwzW19ebl1xyCSYG4xZ6WNr79+/HBiKRHTt2YCvfxlgsdvlbb73V3N3dvQBZGKqqVmJMJEmKwdpHnQNUpjNNE7EThUIr7J6Y14SP8Pa7o5nXw7+vO7/O7I8uZ1H6bC2bWedjWd3830Z7DvilFLSPRqOe4zjI13YSiYSVTqeziUSi2/O8Y5WVlb/Tdb01nU73xOPxnrVr1xpLly5NISBNEISsIAjWVVddhUC2aYmfmKpXGQn6VJGd/POSoE8+00BnJEEPhEmAZb93796avXv3znr99dcvlWV5luM4l1qWtVAQhBmO41SKolhIVcIZkXI31pn9efZMiJhAMwuEt/z4vaDZufm/+0XB36ZUbr5/QsBb93y0P9rBwmVrt3BTY4c7CL5pmsdEUeyCW9fzvN9fd911hz/zmc8c0zTtpGEYAxAcPwtsJpJMJpOIeejr66v7zne+sygWiy3q7+9fqCjK7OKmIknkaQMn6yeLysZ9M/c4YznaenNxPE6b+PhTDvm0rVJLHjjHaNkP+BtfFZHFNTAvyBmWZAoV0ooehQJPLIug+qDrui2xWOzQ5Zdf3nLttde2i6J45Oqrrx5YvXr1xDcgD/bYh6pVUdCRtjbjTBY67bY2vUNHgj5N/Nlua2fKQ79QXO6ThRnr9dFoFPnGya9//euVvb29VbFYDCl2swRBqO3r66vv7+9vKlqVVZIkxV3XTYiiqMGyxwupUEmnmB9fKtee7ysficyCsvhgOyZQLFeYRcezzVKY8LN/eQ/AWC/HoJYnrEGk2hXdwFnP81BMZAj17ysrK1FM5IQoikOSJJWZpjlj7969WNqokWW5Abt/ua6LaHMsb5wScCbiQfK4/RHfpXK6cT60g5UNtzsLKuR58iLMGKKtX5T57AaeOax9eFJwHhb9HolEXMdxbEVRbNd1MQEaUFU1I8tyD+oPzJ07F7UGUHjlRCqVwpLHwMaNGweTyWSqsbExt2TJkotSwP3PHgS9uIaOeJiSj2bx+abtUyfrRXeW5yFBP0twEz2MBH2iBEc/HlYoIrv37NnTsHPnzvp8Pr/I87z5nuctMQxjpmEYtYIgVCAtSpIkiaUiQQhgAePlxEcw8+5d3n3MR+Eza5HPzeeLjzBXPJ8rzaL3mYCORcS/lMD+X5ygnCrHySxo9Bnu/nw+j13U8BaW2Zo0C/hiRUxGu/6ZBN3vpeBTvli8A8tgYH/zW/NMoNm1/Glj7O8scI0FHfrjFYqscZ+o4Y96/j2e5yGVcH9ZWdmhv/3bvz0uSdJBwzBOwj2+fv36Sc3VnrqnefrPXExbg4VOgj79wzFmD0jQp2mAxiPo//AP//BX69atwweKvs6CANaJW1tb1Z/85Cdlv/nNb8rS6XRNJBJZls1m57777rsLVVWdkc1mUS4UkdiFaH3TNDVRFFUcixK5zKpn6+lMUFgAGH7PtqBklifaQNj4cplBuz9ayl2pGAH2u+I6/KnIb1yLLRew9WkWIQ4BRZ9HCypjlthof2fXZGllfqEuVUeA33SklICjv6x/zMVftNAL7nHHcVD0x5IkCYV/DNd1sW6NeuMpVPpbvHjxUVmWf++6bvtNN9109KabbkrFYrFsc3MzIvzHHV8QdKwu9HYk6OfPCJOgT9NYjUfQL4Qo92nCfMbLYo2+o6MDQXmV//7v/15xyy231GzZsqWyo6Oj2nVdVMdbODg4OBvry5ZlwbKPxeNxmZVWhWXICo8gb5oPpuPXhJnY4ne8m3+0DvKu5bHaFIvdnFailwkjO65UsBn/t7ECB0cTdH+f/EWE+NLALJCQxQIwjwjrFyt8w3LNi5MBx3VdVOvr8jzvKDYQURSls66urvu22247+fLLLw/dfPPN/aieduLECZQ+zW7YsAH53vQ1yQRI0CcZ6BSejgR9CuGOdWoS9GkCP47Lep4nd3d3Rw4fPhx59NFHq1CGNJPJLNqzZ88l6XR6nud5taIoJhRFKUfKViKRQL51xDTNwna22PwDolVqrZy5kFlq25mi8cfqdql1ZrTnr83asGhxCC4T/okKOr+Wzc7LJgJsSQD/JhIJL5PJYKtOWMs28vNRbMXzvLTrukgFw4YifZqmdSxduvT9urq69zOZzJEvfOELQy0tLfnHH38ca9rYa+CCiiIfxyM5LU1J0KcF+1ldlAT9rLBN/CAS9IkznK4zoCxuMpmM6LqOHeuQO1+TTqfL7r//ftQgT0YikeZsNrtQ1/VmwzBmF8uYwo0P933BJR7EAg96f6O553G8PwhvrIj0UtcLYqGzNvzyA7s2crcTiUQ+k8kMRSIR7HLXYllWRzweP1pfX99z99134/cDnuch134gGo3mOjo6zPM9dzvo2J0P7UjQz4dR+qCPJOjTNFYk6NMEfoovizQoBKCh3O2PfvQj/cUXX8S2tdiD+8p33nlnEYrpeJ43Q9f1qnQ6jX24I0i1Kwo8jj31mQzimmeWOFuTHs0jMFq0OB+kx9Ccad2cW7MvWMrFmAFUSDNM00wjbQ5FVhzHaW9ubt67bNmyw7IsH6msrOzdsmUL3OOohkdBaVP8LE7W6UnQJ4vk1J+HBH3qGZe8Agn6NIGfxstu3rw50tDQUJnJZGrfeeedhn/7t3+bZVlWQfA9z6srVuJqQCoZquZ5nqdic5WxJt5MfJmgMwuc/R+363ep894Bv3iPEYwH8YYIo4BNThTFfqR+Fde3e2zb7nMcBznwXbfffvuxFStWDFiWNbxmzRpsJkIu8ml87iZ6aRL0iRI8d8eToJ871qddiQm6JEmF/dBLrWMWA6kuiNKv04Q59JeFRf/Nb35T3L59u7RgwQLUs4d1r3ueN1MUxcV79uy5rL29fXY+n2+ybXuepmlx0zRRn11F8RcWUc/Wrvn/82lzfgsd7bH2jS/ke3PFc1xd11GLPKuqKjaaQWnTNlVVW7GpSyKR2Dc4ONj10EMPoe68t3XrVm///v3e+vXrUeWOhDv0T9z4O8h2W5MkaSb/fPEepOLEkPLQx493Uo8gQZ9UnMFPxlvoo1lRxbP1P/bYY+d9LffgZKglT6C48U1c1/Xyt956q+EHP/gBtha9WhTFSx3HWWqaZq1pmgmUz8UmIbFYTDYMQ2TV3Nizxa+dI33MNE0IMGqTW9ii1HVd1IzvraysxJ7vv5Uk6fA111xz4O6778YOcQPz5s3LhmkHMHpKzh2BlStXLt2+fTvSZmfyFQt5I4QE/dyNx1hXIkGfpnE4k8sd3Squh/Zv2rSJBH2axinMl73tttv0iooKPZ/PVxiGUf/qq68u6O3t3SgIAsrjFrrOW+Z81TtZlt9ftWrVd1paWloWLFiAGvGDuVwutXXrVqqOFuZBn4a+fexjH1u6e/fugqDzMRosY4K9q1CykEq/TsMAcZckQZ8m/kzQBUGo9HeBrXEWPyj9//iP/3jrfffd99o0dZUue54Q+MpXvlL+9NNP7xBFcRkTdHSdj6zHz6gcp+v669u3b7/1T/7kT3rJVX6eDPA0dfO6665bsmPHjv+2bbsRXRhjbwMS9GkaI3ZZEvRpGoCggu66bv+3vvWtv3r44YepUtw0jdX5ctkNGzYkH3nkkf9xXXc5+swsKFahjbPYkQv++t69e29dtmzZifPl/qif00Pg4x//+JJdu3a9puv6TMRblPoil/v0jM2HjMFwdOPi60VQl7ssy4Pr1q27c82aNb882y0yLz66F+cdb968Obl27dr/EQShIOhFD8+pgEsW0S5JkidJ0q937tz5V9deey0J+sX5uJzxrhGw2draqv31X//1R3fs2PEzRVGa4Plh1Qn5YF4S9DPiPCcNyEI/J5g/fJGgQXGe51m6rr8jSdI7+Xy+/e///u+7KysrUbv6pG3bw9Fo9OTAwAD2Y85TMY5pGsyQXBYW+oYNG/5H07SCoKOkKr+GztVXh8v919u3bydBD8nYTVc3WJGkYppkOYok5fP5st27d9e+8sorlYqiXJLL5ZZHo9FrRVHUs1mUz/+/LW19E0dyuU/XQLIJ/DRf/6K9fNC0NbyELctCqUxPVVWUy0QesCXLMraDxEYVKc/zhhVFweYUrZqmHczn8/u/8IUvnLzlllvS6XQ6f9VVV9m0TnrhP2q8y53PL+c3SinGZ8Dl/ut33nnn1uXLl/de+GQu7jvEBkP79+9XNE3T29ra9G9961szPM/7iGVZlx04cKAplUrNQS0EVVVRtljHak0xa0LxPE9RVVW2LOtDxh//jDELvaKi4t6hoaEnLm7i03f3ZKFPE/u1a9fO37x581sIimObV7A0ED561N89FjDn34eavahhmImiiJc0vg8LgnDM87zjKARy3333YTOLE6ZpnlQUZbCrqyvz1FNPWdOEgC47yQQ2bdpUvm7dujfhci+RUsS74L1IJPLrt99+mwR9ksdgOk+HwkUDAwNxWZbLPc+refnll2sGBgbqTp48WZtKpWZgLwLP8xpM05wjCEKNJEk69hvg++yvhxFkjwH2TkKUe3l5OQn6ND4EJOjTBP/uu+9e8P3vf/8tSZIq+O028TO///Zo3eM+RKde1PiBVfoqHseKfdj4SiaT1sjIiCEIghGPx4ey2Wzv7Nmz2zVN+10sFjvyqU99qu0v//IvB8vLy0cOHjyYX7169Qe5T/R1XhAgQT8vhmlCnURdgqqqqgjKBm/atKm2s7OzCUGQ3d3d2D/gEkSiO46T0DQtmsvltFgspuVyOVjasvSBFXBaaeHRKgMGEXLcCCLe2ZbC2DgnGo3em8vlNk/oJungsyZAgn7W6CZ24O23337JD3/4w7cVRSlUimP7P/P5w+xDFeTD5RPy0zqH4xOJhJDJYKn9g9xktnc3fsbuV/l8vrBVZSQS6Umn0/vnzp3b+tnPfhYW/gFd13s2bdo0OLE7pqOnmsB4Bf3NN9+kNfSpHpSzPH9xTwDhrrvuUhobG6P9/f1N2ML36aefvtx13fmqqs7J5XLzBUGosCwLVrnMV27D7nbM01esOFkIZsO3fxOdsSz0IN2HhxHvEUmSIOhfGxwcfDLIcdRm8gmQoE8+00BnfPzxx6seeuihPdlstnmsHbj8Qh1E3PkO+GbQBQu+mIv8oaIjOA5Vw/APdv+UZdlWFCXrOM5IdXV1r2EYCMI7pijKcdM0T6iqeuL6668/tnr16j7TNLHpxsgNN9wAlz+VAA30FExuIxL0yeU5lWfDuvbWrVuV2traJMo/r1+/vvrYsWN1mUymvr6+vvnQoUMNiUSiZmRkBGvb2J63XBRF7NinSZKE7XlFrGv796FHn/k0RebJw7+j1SY40/a5Y3HAefGOMQwD75XMH98Pd6TT6Z9NJTs69+gESNCn8emIxWKvOo7zGUmSROR34oPFC7A/6ORsZ9LsnCzimf3rX7tnLwf/+jz/e8z8YQwUU58c13UHHcc5rihKnyiKh1asWPG/S5cubRcE4dCCBQu61q5dCxc/fZ0DAiTo5wDyBC4Bd/lLL700yzTNhW+++eb8zs7ORZlMBgFpc0zTrFJVtQKCjd33VFUVmcXNluGKE+5CD/hAx9G6xLbOLSXY/tr+Z3tbeDcwT4DjOL9/8MEH1zz66KO/P9vz0XETI0CCPjF+Z3000kU2bdp0h2EYj2CnLXyAubWownn9O2Gd6WKjrYfxQs6/FPCz3/1WouZ3wZLH79G/WCxWcN3rul7Y1ANf+B1qgxe/IPKOpmmDtm13x2KxA+Xl5QdTqVRHWVnZ8fXr14/MmDEjhW02JUlKRyKRHFn1ZxrZYH8nQQ/GabJb4bO8ePHiSG1tbaSnpycWiUTKE4lE/N57761OpVJJx3EWZrPZSw3DWGzb9gzHcSqgya7rFoTbdd2CeEO4MfnGv5g4M9Fmn99oNCrkcrlTAor74D+baM/O45+8s0kAmySwd8t4PX5+dkVvgCtJUt+8efMe2rx587M33ngjTeIn+yELeD4S9ICgpqLZM888U/Hss8/esGPHjofwoS/uo134IONDzbvImMCzfoy2Oxv+zv/NP5Nngs3WvZCrzLfB39mHnm+LzT5KWQX8pIOfDEDwWVwA0u6i0aiVTqfhksvk8/mR8vLyoXQ63Y8a4ldeeeXRhQsX7pMkqVUUxZbZs2dnKKd+/E8cCfr4mZ3NERDwgwcPViWTybp8Pr9o27Zti/r6+hZalpWsrKystiyrShTFBDbNMU0zKssydsaT8VkpuqYLNQL8nyf/8lipte4S9dM/dAs4Dtfid9tj4o+Jwni+xorNYZMEVVWPGIax8f33339u/vz5JObjATzJbUnQJxno2ZzuhhtuWPyrX/3qVkmSLsPs3XGcckEQyhRFSTiOExEEIQo3HCbkfkEPOsPmZ++88PIbdvBBNXwbfjLBgmr4ID7eSsDP/HodE3ycD994kfGeBH45QJIkQ5blbk3TTliW9Z7neYeQgnffffd1L1myZMS27aFkMplNpVLpTCaTu+uuuyjljnvgxinor7/55pu3UqW40z+xW7ZsUePxeNTzvHgkEkkKgpD48Y9/nNy5c2e167pI95rvuu4CSZKW5PP5pGVZOv/8s7OxSXmxjsSpeBUm4uxzwce04FgINjxh+Jzxk2W+fjq/VS7/+YJY8+8DtGO/K7WMFkTcEegmCAKyXfBZSwuCkEPdC1EURxAzI4pi6+rVq1/43Oc+t4uyYs7m7T+5x5CgTy7Psz4bXiR1dXV4iSREUYx3dnbGv/71r1fKslydy+WaIpHIcsdxPpJKpWYhiCYWi0XT6bSIPbExE8c6PF4WEEwmkuzDzq+V80Jd6sXAZt04J28xsOP8kwEWOcuv1/EvkvECYS8eOBrwIhFFEb78jKIoGcuyRlRVzWGP7ng8fuzaa689UlZW9j6s+mw22/3tb387s3jxYhxzUabbMUH3PG95qfgLTiRObc5yMQp6MYIcQWnyT3/601gikag3DGPZkSNH5ra3t89HIJooighCQwR5DKKOlSXP8zS4ylkEut8bNtqzzsesMKuZn9Syv4+2ZOb/Pd+eBbjiMw6BZq56ZpGzyQH7O/PAMY8bzo02iItxP1B4bKlrOI7TI4piXywWa5Uk6Q+CIBxxHOeE4zi5J598criuri4timJWkqQsudjH+5abuvYk6FPHdtLPvGbNmnhNTU39K6+80nD06NFrsGWmIAhLRFGcbVnWDFEUy2RZLgTVIAoWa9x88Atbg8OHGmLN/s7asBk7byXwa+XMUmdWABNuv9eAt1J4t18p953fw+Bvg77ATcm+/H3zPM/FerymaR2KonRqmtZumuY7d955Z/vy5csRnDcUj8dTF4P1AEF/8MEH31RVdTkmdkxweEEoCv1FJegIRjt06FBc07S6559/vnrnzp1LFEVZaNv2YsMw5qiqOsvzvEQ+n5fZZ4B5mvyiPd7CK/7gM35CzCLQ+Wvwny2IMHv22XGlik6xzzXOUyqrBevcuC+2Nq9pGqpOeul0GnVcUUZ6wDCMFkVRDs+fP//A9ddf35XP5w+4rtu7ZcuWHGWtTPqrfMpOSII+ZWin9sSwErZu3ao2NDSUP/HEExVvv/12A6x5z/MKrkFJkmYMDAw05vP5SsuyqiH2cCNqmobyjigDKZmmedr4+613PiceLwUE5DC3IBMM/136XyhnouAP/PNbI+zv7MWI8+NnvOjwN2bRFzMEEJeHAB247odzuVyvqqoD8+fP75o5cyasi6O2bfdFIpETkiR1wWW4efPmEV3XraamJqTbndeWPRN0VIrj3akXsqCjYEpra6vy3nvv6Vu3bk309PRUV1RUVEYiEZQ0bZAkada7777bMDw8XK1p2oxcLlfmOE4VCq9AwHmxwzPELxkxj8ZYz3CQJS9+uYlZzqO5u/3r38X87sJ6OPt88h44fjJQ9Lh5juMUykRLkmQ6jpP2PA+u8n7XdU80NjYOSpLU2d/f31VRUXEcvzcMY+DnP/95H9LOVq5caZCAn+mtFd6/k6CHd2wmpWerVq2Sm5qaysvLyxv27ds36+WXX16sadriTCZzqSAI9ZgAwKXoeZ6KaFsWzMZm9H6LgF/zYy8bdJR3JbIXI84xmhuR3ZxfbPib5tcRS1ke+B0mFqMFAY0WQISUO2xm47ouxLwtEol0SJL0bj6fP/zYY48dlWX5eH19/eCqVavy59PLDYL+jW98403TNAsu9wvRQt+yZUsMRQ9zudzMl156ac7evXsXuq471zTNZaZpNhU3F1E/CACXEEFeyMKAWxnfvGCXerb5CSIfCzIZH0Z8tvA54V3jmDTjOuxZHu2Z5y10ZmkX3eeFpalIJJIxTbPXcZxuRVHadV3fP2PGjIM33XTTYWSboE7EP//zP1PA2mQMZIjPQYIe4sGZiq49//zzcm1tbbSsrKzsi1/8YoWmaajvvNTzvFkHDhy4VNO0maZplgkCMtN01bKsiOM4KGShiDBhHUdigs3Wz9FPFpHLLAn8n1nRfrflWPfFu9xxfj6IaLTz8JMM3v3ot4b4mAHf3/BSNKLRKDa8ScdisR7TNI9deeWVByVJ2ltWVtY2MjLS+73vfc8oKyuzFEXBt9nc3IxAITcsog9Bf+CBB7B96mV8HMP5YKHD47R9+3a5ublZ+WPEtIr1atd11e9+97vR1tbWasdx5pw8efLS9vb25YZhfKSioqJqYGAA69wxURSRAobSpgWxZBM8Jo5ssgnRZBNV9gyyZ4L9359ZMtHPIPtcYDLBXOzsuWbCzH7PJsBs7FDkKRqNuo7jONiICZsyeZ5nwKOUz+eHBEHoqa6u7qyvr9+byWRaE4lExx133DG4YsUKxJzkPvrRj1LQ6EQH8Dw7ngT9PBuwqezuV7/6VUTUR6qrq6sikUitbduVqBedyWSq4brUNK3Rdd2FpmnWJ5PJqpGREV2W5YLAw3UJa5lZHKyfQVySQe+JvXzZOdmEwp/+w1zxo0X48i9zFkiI/iOmgF+jj8Vinm3bcMND7NOpVGrAdV1scNNv23YPNroRRbHn4YcfbnNdtw+W0b333jskiuL4coOCAjhDO17Q+aZhFHRMLA8fPpxEQNrevXvno+BKOp2e4bputaqqDaIo1qTT6RpFUbCMFEcAuGmaEPqClc0CPXFvzH2NyRxqJPiXcdjkjZ+A+mND/Gh5kZ2M4WHPFZuUoq/secNnphikVlguchwH6Zzdtm13eJ6H8stDV1xxRVc8Hh/41Kc+hfXtgWQymeru7k5XV1dblOI5GSN0YZyDBP3CGMcpvQtYT/v371dlWY688cYbyZ/85Cc12Wx2Vmdn56WDg4NLkEOvKEq5bdt6NBqNSpJtGvg2AAAUvUlEQVQUyWQykUgkolmWhRrTKJxR8lk7k0seNzZW9C97wbPyk/5iHAwMe8kzsWcpeuz3eMHCisLLlfcM8JMFCAnct4glYEV0sF99IpHIGYaB4KKOxsbGjng8vleWZeTUw/2Z+ou/+Iv8Jz/5yawsy/nq6mrjvffes6ciSO/+++8v/+53v/umbduFNfRS0dPnIigOYn3FFVcoJ06c0BoaGqIDAwOR1157TX/ttdeSpmnOFgSh6cSJE5f29/dfaRhGrSRJyN3G5BAeITwncAbhqyDWvED7Mzb8qVr8BwEiyqxgPtjMn56JY8Y6T1CPUql2xXvwFEXxNE1zstmsqWmYm5g5WZaxxp2RZRkCfmzu3LmHqqqqDmiadmDevHl99fX1uVWrVmXb2trcqXhepvSlQSefFgIk6NOC/cK4KET6m9/8phyPxyPRaFTPZDI1uq5X79u3r+IXv/hFjWEYMwRBQATxPNd1sSvUTFhbnufBE1D44tPdeCq8NeXfz5utczJvQKlIeSb07GUdhDgTe3+pzbE8AKUqciEFCGEFcHtaljUUiUTSjuOcRDUtURRPIDBv8eLFR66//vrDqqoer6qq6vm7v/u7DyIOJ/D1uc99ruLFF198w3Xdy/3R1Mwy5AT912+99dakbJ+KbTtPnDhRIwgC0r5mv/DCCwscx6nHxkO2bderqlqFQLTiUk7BRV4U7cLdgjdbz+Zd4HwMBj9BYULN71LI1qXHKrxSKgCTueUxjv5a50GEnl8i4oausK4tCMKwoijYqrhFEIQOwzAw2et7+OGHT+q6fjKdTg/FYrHBoaGh1IwZMyyqqzCBh58OLRAgQacHYcoIYAOK1tZW1XEc7V//9V/L9uzZM0fTtHmtra2XHz9+/BLHcWa7rlsjy3KZZVlloigW0obwzUrh8vnvLI0HL1E+nY1fQ8fN8Gvl7Hj+ZV5qElHKTYtzlaqO509FOhNA9tLHWntxvR0ueeSV5TRNG1EU5cisWbNaPM/7veu67zc2Np547LHHIASpq666CvV12XFjXgoW+re//e1dnuctKXy4RbHgbeBFrlhgCIKzfdeuXV8MmoeO6mh/+qd/qkWj0fJXX3218qc//elMLMOk0+mr0un04lwuh8lbrSzLURRDgmemKMKFdww/QWM3cSbvDOu/PyDS7zXhc6/Zerm/bgI7B/s9P4bsfKz4EnPhM08NP1nAz7Ztw9rGfgaibduG53l5x3GGJUkaUBTlaEVFxe+WLl3a2dHRcWDOnDnHvv/97w/AGn/wwQftrVu3nteZFGd61unv00uABH16+V+UV4dl/+yzz8YMw6hra2ure/LJJ+szmcxH4vF4TSqVmhmLxapt20ZwXpUsy+UQCdd1FcdxCuUz2YueraViLRJronjZlkqn461Vficq/7om/2JnLlj2UsdA+Utp8ucdayA5Qf9QM87CQ7qRqes6SuP2V1dXHx0cHERe/VFN0wauueaa3uXLl2Onu+FUKnWirq5uZP369aflCG/YsKHqscceex0ud5zX31+uTrhXUVHx6127dq1ZsmRJD9+pDRs2aIODg0j7qrIsa+avfvWrqmPHjiH9scbzvHpJkuYiJTKXy9VrmpaQJEn9434EEvNqsMkSH79QSsz5CQf7uRRDHMs480JeaqKF4/nx9Z+P3T9+j36CD5ZQstnsqeUJlmLGvD8Qb0mSEASZkyRpCJ4WFDaCixzeF1VVO6urq3seeeSRI4qi9IuiONDR0TFC69oX5att2m+aBH3ah4A6ULTg8CyitK3c3t4uHTp0SIaAP/XUU3DXzuvo6IBlf5nnebDq52HtVZZllMaNciVxC9XymJAxy5RPVSpFm0974y11f/4ws/6Za3Y0q77UNUZxzZ7aYY9FX7N96pFLjP5jeRe18CORiIsAPWx8I0nSsG3bw7FYDNZ86/Dw8MFkMtmezWaH+/r6nhFF8TL/Rj++PkHQd3/1q1+977nnnlMURZk1ODi43PO8jwwMDDTruj4DNchVVY0g6BH52qqqom5BofQwvCes4Alv6bKlED7HerQlFb4//CStVBBlqfoIbEz59fBSIs8ixllaGH9d9nwoiuKqquoiHgL7DEiS1KtpWpdlWa3XXXfdwcrKyj+MjIx0wj3+gx/8II/x+OEPf+isX7++UBY1LFkO9CYhAiTo9AycFwRYIR3kzOfz+foXX3yx/j/+4z9m6LreWFynbZJlecbIyEidKIp1uq7Hstmsjqp5fEAUq0EP4YRl5nf74sWPL78gQixYKh7EhC+0ExRgKRcz7wIuqDcXBIZAPQgnv37MrNCiBelBXOC613V9SFGUIcMw5lqWhajwQm4zXx+ACa2u6x7S8yoqKtoGBgZQRhj7B8QNw5ATiUSBS3HZo3A873pmkx94QuAVwb9sHZpNcHhBD+pWH20SxMaOF+tSyyjs2qwd2rBqiEy4EZQmy7JlWRbWtocsy+pSVfWELMtdmUzmOKLIKyoqOjdt2nQcgWqKooysXr36g5J79EUEzgMCJOjnwSBRF8cmUBR7qaenB8FWwrvvvhuFux7BWaqqztM07epcLjcPAXqCIFTm83kIvQbrk88PhhDxLlsIAou0Zlb5ZKbh+e+Kt3b97nwIFQvc4j0EOAfbAISdjxdR/5oxs5jRFpH6KBHM3ON+UUQbPugP5zqD5X9qgsTf23iYscBEdjxvgbNUMz4ojo8PKP4dtciRs512XXdIkiQUWUFaYevKlSt/l0wmj6HQSkNDQ2bz5s12cc+AQDEK9DkkAmEnQIIe9hGi/p01geI+1WJ5ebl+7Nix8t27d8/4zW9+09TT0zNfVdXLM5lMo2EYl2DbSxTSSSaT8sjIiFgUucIe1UVRK4gevmA1w2qFsMXj8ULe80S+WIAfy0UuFQhWKjq7KMinXZpNQFgcAV9cxu8O54WQBYz5Xdb8hh68kDMXOc7PLPiJMOAnImwywlv58Bqk02mUMy1MMEzTLAhwLBZz0+k0PCf5YkDaMU3T/iBJUpuqqoeSyWTHE0880dXb2zvU0dFh0rr2ZIwSnSPMBEjQwzw61LcpJQDL/vbbb0/oul5x9OjRmdu3b6+97bbbGl555ZWmrq6uGkmS6rBmj0I60Wi0Op1O66hIpigKopunpG+smpk/qA1CxlzozEKHoDJ3N59yxZcv5d3hvEiWstx5y54V3MFN+gMJWflSZsHzhX7OBkqp/iL1T5IkWxTFnG3bKV3Xe7PZbIeu613I729ubj557bXXdmG7Xc/zTqLYT09PT4aiyM9mBOiYC4UACfqFMpJ0HxMmAIGH5cfW6ysrK6Oolrdx48b6tra2ubquLxoZGVmUy+XmZDKZ2ZqmlaF6GbzevhTQwJ8rPrK+aH0yr8CpCmj+NLlSQX58G96i91v3pVK+RjsWv+fd7LxVX6oO+nhc60VXNzgBOsrnIigNtcbTqqr2xePxNl3X96mqui+dTnc+8cQTJ5ubm/u7u7szq1atKpQ0pWC0CT/ydIILjEDgF88Fdt90O0TgrAjAjS8IQjKVSjW2t7c3v/baa3Oy2ezCaDRahmA9TdMQfY+iOqgzjnQ7bHpTiBKH25oFuDG3NVvTZhXqWAlaJsR8ih5LtSqKWcE6Z5b2aAJbal2cz+tmYs6v2fPZAcyqZ94AZvHzgXq88PNr7mhbtO5R0tRRVdVyHCclSRKqow3Ztt0rCMJJWNmWZfV+7Wtf26coyrGRkZGu+vr6YXKRn9UjSgddxARI0C/iwadbnzgBWPN79uxR2tralG3btsXvuOOO6M9//vP4tm3bsD1nhSzLC4aHh+cMDg5eJghCs+u6tYhCR/42iq/wUfjxeFxka/L83vX+CmbMHV9qBzoWVOYvsFLqTpkrnb8WC0JjAWil1u991dUQWIcqa14kEvFc10WaHfLps8inl2X5D83NzdhbuyMWi/V+9rOfPX799ddnysvLUUUvPTQ0lH/hhRfMLVu2IP1rWmrgT/wpoDMQgXAQIEEPxzhQLy5wAhs2bNBN0yxva2tr3rZt20dGRkZmJxIJ7NNdU1ZWhrV6rNFXqaqKmvgRfMOqt237VKU1fi2bd50Xg8YKBNnvWcEUZs3zkfCjFWVhQ+AvtctdF8sREF4rGo3mTdPMxGKxPpSylSSp37KsPsdx+srKyg7/zd/8TXskEjnS1dXV/9RTT9GuXxf48023Fw4CJOjhGAfqxUVEgKXZYQMTrMH/0z/9U7SiokLr6urSOzo6ygVBQDGdBS0tLYscx1mWTqfrdV0vz+Vy2NZWU1VVwSYmKD0KbCx3naW1MZR+N7x/rRyWOXLOYY0j3714fCG0PxKJICDNyOfz2BMervGeWbNmtVVXV//e87y2aDTa5bouUsPyn//853PYVjaTyZhNTU0mbSRyET3MdKuhIkCCHqrhoM4Qgf8jgF3LOjs7K5FT/9JLL9W//fbbiyKRyAxJkq6wLKs5n8/PRKGdSCSCiQFS68R4PC7Bbc+vrRfrjxdOzJc2hZu8GIyG9W24yjOJROJELpc7qGnaEdM0961Zs+a4aZqHq6urT1ZXV6dpXZueUCIQXgIk6OEdG+oZETiNADa72bNnj7xnz57YL37xC+xaV+04TtKyrLr9+/fPRpU813VneJ5XgT3FbdtGLXzsgqbZtm0qijIoCMKAbdv9qqp2i6J4sra29tiiRYt68vk8Sp1in+30I488MlxfX282NzcbFElODyEROH8IkKCfP2NFPSUCZyRQ3NJW/dnPflZ2zz33NKxbt25uKpWqrKioSN98881tK1as6HFdN/WVr3zltI1dznhiakAEiEDoCZCgh36IqINEYGIEIPI4A1nbE+NIRxOBsBMgQQ/7CFH/iAARIAJEgAgEIECCHgASNSECRIAIEAEiEHYCJOhhHyHqHxEgAkSACBCBAARI0ANAoiZEgAgQASJABMJOgAQ97CNE/SMCRIAIEAEiEIAACXoASNSECBABIkAEiEDYCZCgh32EqH9EgAgQASJABAIQIEEPAImaEAEiQASIABEIOwES9LCPEPWPCBABIkAEiEAAAiToASBREyJABIgAESACYSdAgh72EaL+EQEiQASIABEIQIAEPQAkakIEiAARIAJEIOwESNDDPkLUPyJABIgAESACAQiQoAeARE2IABEgAkSACISdAAl62EeI+kcEiAARIAJEIAABEvQAkKgJESACRIAIEIGwEyBBD/sIUf+IABEgAkSACAQgQIIeABI1IQJEgAgQASIQdgIk6GEfIeofESACRIAIEIEABEjQA0CiJkSACBABIkAEwk6ABD3sI0T9IwJEgAgQASIQgAAJegBI1IQIEAEiQASIQNgJkKCHfYSof0SACBABIkAEAhAgQQ8AiZoQASJABIgAEQg7ARL0sI8Q9Y8IEAEiQASIQAACJOgBIFETIkAEiAARIAJhJ0CCHvYRov4RASJABIgAEQhAgAQ9ACRqQgSIABEgAkQg7ARI0MM+QtQ/IkAEiAARIAIBCJCgB4BETYgAESACRIAIhJ0ACXrYR4j6RwSIABEgAkQgAAES9ACQqAkRIAJEgAgQgbATIEEP+whR/4gAESACRIAIBCBAgh4AEjUhAkSACBABIhB2AiToYR8h6h8RIAJEgAgQgQAESNADQKImRIAIEAEiQATCToAEPewjRP0jAkSACBABIhCAAAl6AEjUhAgQASJABIhA2AmQoId9hKh/RIAIEAEiQAQCECBBDwCJmhABIkAEiAARCDsBEvSwjxD1jwgQASJABIhAAAIk6AEgURMiQASIABEgAmEnQIIe9hGi/hEBIkAEiAARCECABD0AJGpCBIgAESACRCDsBEjQwz5C1D8iQASIABEgAgEIkKAHgERNiAARIAJEgAiEnQAJethHiPpHBIgAESACRCAAARL0AJCoCREgAkSACBCBsBMgQQ/7CFH/iAARIAJEgAgEIECCHgASNSECRIAIEAEiEHYCJOhhHyHqHxEgAkSACBCBAARI0ANAoiZEgAgQASJABMJOgAQ97CNE/SMCRIAIEAEiEIAACXoASNSECBABIkAEiEDYCZCgh32EqH9EgAgQASJABAIQIEEPAImaEAEiQASIABEIOwES9LCPEPWPCBABIkAEiEAAAiToASBREyJABIgAESACYSdAgh72EaL+EQEiQASIABEIQIAEPQAkakIEiAARIAJEIOwESNDDPkLUPyJABIgAESACAQiQoAeARE2IABEgAkSACISdAAl62EeI+kcEiAARIAJEIAABEvQAkKgJESACRIAIEIGwEyBBD/sIUf+IABEgAkSACAQgQIIeABI1IQJEgAgQASIQdgIk6GEfIeofESACRIAIEIEABEjQA0CiJkSACBABIkAEwk6ABD3sI0T9IwJEgAgQASIQgAAJegBI1IQIEAEiQASIQNgJkKCHfYSof0SACBABIkAEAhAgQQ8AiZoQASJABIgAEQg7ARL0sI8Q9Y8IEAEiQASIQAACJOgBIFETIkAEiAARIAJhJ0CCHvYRov4RASJABIgAEQhAgAQ9ACRqQgSIABEgAkQg7ARI0MM+QtQ/IkAEiAARIAIBCJCgB4BETYgAESACRIAIhJ0ACXrYR4j6RwSIABEgAkQgAAES9ACQqAkRIAJEgAgQgbATIEEP+whR/4gAESACRIAIBCBAgh4AEjUhAkSACBABIhB2AiToYR8h6h8RIAJEgAgQgQAESNADQKImRIAIEAEiQATCToAEPewjRP0jAkSACBABIhCAAAl6AEjUhAgQASJABIhA2AmQoId9hKh/RIAIEAEiQAQCECBBDwCJmhABIkAEiAARCDsBEvSwjxD1jwgQASJABIhAAAIk6AEgURMiQASIABEgAmEnQIIe9hGi/hEBIkAEiAARCECABD0AJGpCBIgAESACRCDsBEjQwz5C1D8iQASIABEgAgEIkKAHgERNiAARIAJEgAiEnQAJethHiPpHBIgAESACRCAAARL0AJCoCREgAkSACBCBsBMgQQ/7CFH/iAARIAJEgAgEIECCHgASNSECRIAIEAEiEHYCJOhhHyHqHxEgAkSACBCBAARI0ANAoiZEgAgQASJABMJO4P8DkR/UVcjD6p4AAAAASUVORK5CYII=;fillColor=#f5f5f5;fontColor=#000000;strokeColor=#666666;" vertex="1" parent="1">
          <mxGeometry x="362.5" y="242.5" width="75" height="75" as="geometry" />
        </mxCell>
      </root>
    </mxGraphModel>
  </diagram>
</mxfile>
